<svg xmlns="http://www.w3.org/2000/svg" xmlns:xlink="http://www.w3.org/1999/xlink" width="500" zoomAndPan="magnify" viewBox="0 0 375 187.499995" height="250" preserveAspectRatio="xMidYMid meet" version="1.0"><defs><g/><clipPath id="5462ab7c12"><path d="M 13.8125 53.234375 L 361.414062 53.234375 L 361.414062 133.765625 L 13.8125 133.765625 Z M 13.8125 53.234375 " clip-rule="nonzero"/></clipPath><clipPath id="35d789f156"><path d="M 51.957031 53.234375 L 323.042969 53.234375 C 333.160156 53.234375 342.863281 57.253906 350.015625 64.410156 C 357.171875 71.5625 361.1875 81.265625 361.1875 91.382812 L 361.1875 95.617188 C 361.1875 105.734375 357.171875 115.4375 350.015625 122.59375 C 342.863281 129.746094 333.160156 133.765625 323.042969 133.765625 L 51.957031 133.765625 C 41.839844 133.765625 32.136719 129.746094 24.984375 122.59375 C 17.828125 115.4375 13.8125 105.734375 13.8125 95.617188 L 13.8125 91.382812 C 13.8125 81.265625 17.828125 71.5625 24.984375 64.410156 C 32.136719 57.253906 41.839844 53.234375 51.957031 53.234375 Z M 51.957031 53.234375 " clip-rule="nonzero"/></clipPath><clipPath id="f3541fa7e8"><path d="M 13.816406 53.234375 L 360.886719 53.234375 L 360.886719 134 L 13.816406 134 Z M 13.816406 53.234375 " clip-rule="nonzero"/></clipPath><clipPath id="867d3381b4"><path d="M 51.964844 53.234375 L 323.035156 53.234375 C 333.152344 53.234375 342.855469 57.253906 350.007812 64.410156 C 357.164062 71.5625 361.183594 81.265625 361.183594 91.382812 L 361.183594 95.617188 C 361.183594 105.734375 357.164062 115.4375 350.007812 122.589844 C 342.855469 129.742188 333.152344 133.761719 323.035156 133.761719 L 51.964844 133.761719 C 41.847656 133.761719 32.144531 129.742188 24.988281 122.589844 C 17.835938 115.4375 13.816406 105.734375 13.816406 95.617188 L 13.816406 91.382812 C 13.816406 81.265625 17.835938 71.5625 24.988281 64.410156 C 32.144531 57.253906 41.847656 53.234375 51.964844 53.234375 Z M 51.964844 53.234375 " clip-rule="nonzero"/></clipPath></defs><g clip-path="url(#5462ab7c12)"><g clip-path="url(#35d789f156)"><path fill="#d9d9d9" d="M 13.8125 53.234375 L 361.097656 53.234375 L 361.097656 133.765625 L 13.8125 133.765625 Z M 13.8125 53.234375 " fill-opacity="1" fill-rule="nonzero"/></g></g><g clip-path="url(#f3541fa7e8)"><g clip-path="url(#867d3381b4)"><path fill="#7648a1" d="M 63.933594 50.242188 L 72.90625 50.242188 L 72.90625 56.226562 L 63.933594 56.226562 Z M 75.898438 50.242188 L 84.875 50.242188 L 84.875 56.226562 L 75.898438 56.226562 Z M 87.867188 50.242188 L 96.84375 50.242188 L 96.84375 56.226562 L 87.867188 56.226562 Z M 99.835938 50.242188 L 108.8125 50.242188 L 108.8125 56.226562 L 99.835938 56.226562 Z M 111.804688 50.242188 L 120.78125 50.242188 L 120.78125 56.226562 L 111.804688 56.226562 Z M 123.773438 50.242188 L 132.75 50.242188 L 132.75 56.226562 L 123.773438 56.226562 Z M 135.742188 50.242188 L 144.714844 50.242188 L 144.714844 56.226562 L 135.742188 56.226562 Z M 147.707031 50.242188 L 156.683594 50.242188 L 156.683594 56.226562 L 147.707031 56.226562 Z M 159.675781 50.242188 L 168.652344 50.242188 L 168.652344 56.226562 L 159.675781 56.226562 Z M 171.644531 50.242188 L 180.621094 50.242188 L 180.621094 56.226562 L 171.644531 56.226562 Z M 183.613281 50.242188 L 192.589844 50.242188 L 192.589844 56.226562 L 183.613281 56.226562 Z M 195.582031 50.242188 L 204.558594 50.242188 L 204.558594 56.226562 L 195.582031 56.226562 Z M 207.550781 50.242188 L 216.523438 50.242188 L 216.523438 56.226562 L 207.550781 56.226562 Z M 219.515625 50.242188 L 228.492188 50.242188 L 228.492188 56.226562 L 219.515625 56.226562 Z M 231.484375 50.242188 L 240.460938 50.242188 L 240.460938 56.226562 L 231.484375 56.226562 Z M 243.453125 50.242188 L 252.429688 50.242188 L 252.429688 56.226562 L 243.453125 56.226562 Z M 255.421875 50.242188 L 264.398438 50.242188 L 264.398438 56.226562 L 255.421875 56.226562 Z M 267.390625 50.242188 L 276.367188 50.242188 L 276.367188 56.226562 L 267.390625 56.226562 Z M 279.355469 50.242188 L 288.332031 50.242188 L 288.332031 56.226562 L 279.355469 56.226562 Z M 291.324219 50.242188 L 300.300781 50.242188 L 300.300781 56.226562 L 291.324219 56.226562 Z M 303.292969 50.242188 L 312.269531 50.242188 L 312.269531 56.226562 L 303.292969 56.226562 Z M 315.261719 50.242188 L 323.035156 50.242188 C 323.472656 50.242188 323.90625 50.25 324.34375 50.265625 L 324.152344 56.246094 C 323.78125 56.234375 323.410156 56.226562 323.035156 56.226562 L 315.261719 56.226562 Z M 327.570312 50.492188 C 330.792969 50.851562 333.929688 51.578125 336.980469 52.679688 L 334.953125 58.308594 C 332.347656 57.371094 329.664062 56.746094 326.910156 56.441406 Z M 339.972656 53.890625 C 342.929688 55.226562 345.6875 56.886719 348.25 58.875 L 344.582031 63.605469 C 342.394531 61.90625 340.035156 60.484375 337.507812 59.34375 Z M 350.722656 60.957031 C 351.203125 61.390625 351.667969 61.835938 352.125 62.292969 C 353.964844 64.128906 355.613281 66.125 357.070312 68.273438 L 352.121094 71.636719 C 350.875 69.796875 349.464844 68.09375 347.894531 66.523438 C 347.503906 66.132812 347.105469 65.753906 346.695312 65.382812 Z M 358.78125 71.019531 C 360.386719 73.835938 361.640625 76.804688 362.546875 79.917969 L 356.796875 81.585938 C 356.027344 78.925781 354.953125 76.390625 353.582031 73.980469 Z M 363.324219 83.058594 C 363.890625 85.804688 364.175781 88.578125 364.175781 91.382812 L 364.175781 92.601562 L 358.191406 92.601562 L 358.191406 91.382812 C 358.191406 88.984375 357.949219 86.613281 357.464844 84.269531 Z M 364.175781 95.589844 L 364.175781 95.617188 C 364.175781 98.855469 363.796875 102.050781 363.042969 105.199219 L 357.222656 103.804688 C 357.867188 101.113281 358.191406 98.386719 358.191406 95.617188 L 358.191406 95.589844 Z M 362.167969 108.3125 C 361.164062 111.398438 359.820312 114.324219 358.125 117.089844 L 353.019531 113.96875 C 354.46875 111.601562 355.621094 109.101562 356.476562 106.464844 Z M 356.335938 119.773438 C 355.0625 121.527344 353.660156 123.171875 352.125 124.707031 C 351.363281 125.46875 350.574219 126.199219 349.753906 126.898438 L 345.867188 122.347656 C 346.566406 121.75 347.242188 121.125 347.894531 120.472656 C 349.203125 119.164062 350.402344 117.757812 351.492188 116.261719 Z M 347.222656 128.894531 C 344.597656 130.800781 341.789062 132.375 338.792969 133.617188 L 336.5 128.089844 C 339.0625 127.027344 341.460938 125.683594 343.703125 124.054688 Z M 335.765625 134.734375 C 332.679688 135.738281 329.519531 136.371094 326.289062 136.625 L 325.816406 130.660156 C 328.578125 130.441406 331.277344 129.902344 333.914062 129.046875 Z M 323.042969 136.753906 L 314.070312 136.753906 L 314.070312 130.769531 L 323.042969 130.769531 Z M 311.078125 136.753906 L 302.101562 136.753906 L 302.101562 130.769531 L 311.078125 130.769531 Z M 299.109375 136.753906 L 290.132812 136.753906 L 290.132812 130.769531 L 299.109375 130.769531 Z M 287.140625 136.753906 L 278.164062 136.753906 L 278.164062 130.769531 L 287.140625 130.769531 Z M 275.171875 136.753906 L 266.195312 136.753906 L 266.195312 130.769531 L 275.171875 130.769531 Z M 263.203125 136.753906 L 254.226562 136.753906 L 254.226562 130.769531 L 263.203125 130.769531 Z M 251.234375 136.753906 L 242.261719 136.753906 L 242.261719 130.769531 L 251.234375 130.769531 Z M 239.269531 136.753906 L 230.292969 136.753906 L 230.292969 130.769531 L 239.269531 130.769531 Z M 227.300781 136.753906 L 218.324219 136.753906 L 218.324219 130.769531 L 227.300781 130.769531 Z M 215.332031 136.753906 L 206.355469 136.753906 L 206.355469 130.769531 L 215.332031 130.769531 Z M 203.363281 136.753906 L 194.386719 136.753906 L 194.386719 130.769531 L 203.363281 130.769531 Z M 191.394531 136.753906 L 182.417969 136.753906 L 182.417969 130.769531 L 191.394531 130.769531 Z M 179.425781 136.753906 L 170.453125 136.753906 L 170.453125 130.769531 L 179.425781 130.769531 Z M 167.460938 136.753906 L 158.484375 136.753906 L 158.484375 130.769531 L 167.460938 130.769531 Z M 155.492188 136.753906 L 146.515625 136.753906 L 146.515625 130.769531 L 155.492188 130.769531 Z M 143.523438 136.753906 L 134.546875 136.753906 L 134.546875 130.769531 L 143.523438 130.769531 Z M 131.554688 136.753906 L 122.578125 136.753906 L 122.578125 130.769531 L 131.554688 130.769531 Z M 119.585938 136.753906 L 110.609375 136.753906 L 110.609375 130.769531 L 119.585938 130.769531 Z M 107.617188 136.753906 L 98.644531 136.753906 L 98.644531 130.769531 L 107.617188 130.769531 Z M 95.652344 136.753906 L 86.675781 136.753906 L 86.675781 130.769531 L 95.652344 130.769531 Z M 83.683594 136.753906 L 74.707031 136.753906 L 74.707031 130.769531 L 83.683594 130.769531 Z M 71.714844 136.753906 L 62.738281 136.753906 L 62.738281 130.769531 L 71.714844 130.769531 Z M 59.746094 136.753906 L 51.964844 136.753906 C 51.53125 136.753906 51.097656 136.75 50.667969 136.734375 L 50.855469 130.753906 C 51.222656 130.765625 51.59375 130.769531 51.964844 130.769531 L 59.746094 130.769531 Z M 47.4375 136.503906 C 44.214844 136.148438 41.078125 135.421875 38.027344 134.320312 L 40.054688 128.691406 C 42.660156 129.632812 45.34375 130.253906 48.097656 130.558594 Z M 35.035156 133.109375 C 32.078125 131.777344 29.320312 130.117188 26.757812 128.128906 L 30.425781 123.398438 C 32.613281 125.097656 34.972656 126.515625 37.496094 127.65625 Z M 24.28125 126.046875 C 23.800781 125.613281 23.332031 125.164062 22.875 124.707031 C 21.039062 122.871094 19.390625 120.878906 17.933594 118.730469 L 22.882812 115.371094 C 24.128906 117.203125 25.535156 118.90625 27.105469 120.472656 C 27.496094 120.867188 27.898438 121.25 28.308594 121.621094 Z M 16.222656 115.988281 C 14.617188 113.171875 13.363281 110.203125 12.457031 107.089844 L 18.203125 105.417969 C 18.976562 108.082031 20.050781 110.617188 21.421875 113.023438 Z M 11.675781 103.949219 C 11.109375 101.199219 10.824219 98.421875 10.824219 95.617188 L 10.824219 94.40625 L 16.808594 94.40625 L 16.808594 95.617188 C 16.808594 98.015625 17.050781 100.390625 17.539062 102.738281 Z M 10.824219 91.414062 L 10.824219 91.382812 C 10.824219 88.144531 11.203125 84.953125 11.953125 81.808594 L 17.773438 83.199219 C 17.128906 85.890625 16.808594 88.617188 16.808594 91.382812 L 16.808594 91.414062 Z M 12.828125 78.695312 C 13.832031 75.609375 15.175781 72.683594 16.871094 69.914062 L 21.972656 73.039062 C 20.527344 75.402344 19.378906 77.902344 18.523438 80.542969 Z M 18.660156 67.230469 C 19.933594 65.476562 21.339844 63.828125 22.875 62.292969 C 23.632812 61.535156 24.421875 60.804688 25.238281 60.109375 L 29.125 64.65625 C 28.425781 65.253906 27.753906 65.875 27.105469 66.523438 C 25.792969 67.835938 24.59375 69.242188 23.503906 70.746094 Z M 27.769531 58.109375 C 30.394531 56.203125 33.203125 54.628906 36.199219 53.382812 L 38.492188 58.910156 C 35.929688 59.972656 33.53125 61.320312 31.289062 62.949219 Z M 39.226562 52.265625 C 42.308594 51.261719 45.46875 50.628906 48.703125 50.371094 L 49.175781 56.339844 C 46.414062 56.558594 43.714844 57.097656 41.078125 57.953125 Z M 51.945312 50.242188 L 60.941406 50.242188 L 60.941406 56.226562 L 51.945312 56.226562 Z M 51.945312 50.242188 " fill-opacity="1" fill-rule="nonzero"/></g></g><g fill="#7648a1" fill-opacity="1"><g transform="translate(93.457433, 108.537029)"><g><path d="M 9.28125 -22.53125 L 9.28125 -13.578125 C 9.28125 -11.367188 9.773438 -9.628906 10.765625 -8.359375 C 11.765625 -7.097656 13 -6.21875 14.46875 -5.71875 C 15.9375 -5.226562 17.398438 -4.984375 18.859375 -4.984375 C 19.847656 -4.984375 20.878906 -5.03125 21.953125 -5.125 C 23.023438 -5.21875 24.09375 -5.378906 25.15625 -5.609375 C 25.3125 -5.609375 25.460938 -5.570312 25.609375 -5.5 C 25.765625 -5.425781 25.882812 -5.273438 25.96875 -5.046875 L 26.484375 -1.4375 C 26.484375 -1.351562 26.441406 -1.21875 26.359375 -1.03125 C 26.285156 -0.84375 26.132812 -0.707031 25.90625 -0.625 C 24.601562 -0.320312 23.1875 -0.0859375 21.65625 0.078125 C 20.132812 0.253906 18.800781 0.34375 17.65625 0.34375 C 15.25 0.34375 13.222656 0.03125 11.578125 -0.59375 C 9.929688 -1.226562 8.59375 -2.039062 7.5625 -3.03125 C 6.53125 -4.03125 5.738281 -5.101562 5.1875 -6.25 C 4.632812 -7.394531 4.25 -8.507812 4.03125 -9.59375 C 3.820312 -10.6875 3.71875 -11.613281 3.71875 -12.375 L 3.71875 -23.734375 C 3.71875 -24.492188 3.820312 -25.414062 4.03125 -26.5 C 4.25 -27.59375 4.632812 -28.710938 5.1875 -29.859375 C 5.738281 -31.003906 6.53125 -32.070312 7.5625 -33.0625 C 8.59375 -34.0625 9.929688 -34.875 11.578125 -35.5 C 13.222656 -36.132812 15.25 -36.453125 17.65625 -36.453125 C 18.800781 -36.453125 20.132812 -36.363281 21.65625 -36.1875 C 23.1875 -36.019531 24.601562 -35.78125 25.90625 -35.46875 C 26.132812 -35.394531 26.285156 -35.257812 26.359375 -35.0625 C 26.441406 -34.875 26.484375 -34.742188 26.484375 -34.671875 L 25.96875 -31.0625 C 25.882812 -30.832031 25.765625 -30.675781 25.609375 -30.59375 C 25.460938 -30.519531 25.3125 -30.484375 25.15625 -30.484375 C 24.09375 -30.710938 23.023438 -30.875 21.953125 -30.96875 C 20.878906 -31.070312 19.847656 -31.125 18.859375 -31.125 C 17.398438 -31.125 15.9375 -30.875 14.46875 -30.375 C 13 -29.875 11.765625 -29.003906 10.765625 -27.765625 C 9.773438 -26.523438 9.28125 -24.78125 9.28125 -22.53125 Z M 9.28125 -22.53125 "/></g></g></g><g fill="#7648a1" fill-opacity="1"><g transform="translate(123.662962, 108.537029)"><g><path d="M 21.03125 -35.296875 L 31.578125 -1.03125 C 31.578125 -0.6875 31.460938 -0.425781 31.234375 -0.25 C 31.003906 -0.0820312 30.773438 0 30.546875 0 L 26.9375 0 C 26.4375 0 26.054688 -0.34375 25.796875 -1.03125 L 24.078125 -6.703125 L 9.578125 -6.703125 L 7.796875 -1.03125 C 7.523438 -0.34375 7.140625 0 6.640625 0 L 3.03125 0 C 2.800781 0 2.570312 -0.0820312 2.34375 -0.25 C 2.113281 -0.425781 2 -0.6875 2 -1.03125 L 12.546875 -35.296875 C 12.742188 -35.835938 13.085938 -36.109375 13.578125 -36.109375 L 20 -36.109375 C 20.5 -36.109375 20.84375 -35.835938 21.03125 -35.296875 Z M 11.234375 -12.03125 L 22.40625 -12.03125 L 16.796875 -30.09375 Z M 11.234375 -12.03125 "/></g></g></g><g fill="#7648a1" fill-opacity="1"><g transform="translate(157.250128, 108.537029)"><g><path d="M 25.671875 -1.03125 L 9.578125 -25.796875 L 9.578125 -1.03125 C 9.578125 -0.6875 9.460938 -0.425781 9.234375 -0.25 C 9.003906 -0.0820312 8.773438 0 8.546875 0 L 5.046875 0 C 4.816406 0 4.585938 -0.0820312 4.359375 -0.25 C 4.128906 -0.425781 4.015625 -0.6875 4.015625 -1.03125 L 4.015625 -35.078125 C 4.015625 -35.421875 4.128906 -35.675781 4.359375 -35.84375 C 4.585938 -36.019531 4.816406 -36.109375 5.046875 -36.109375 L 8.484375 -36.109375 C 8.710938 -36.109375 8.957031 -36.007812 9.21875 -35.8125 C 9.488281 -35.625 9.722656 -35.378906 9.921875 -35.078125 L 26.140625 -10.3125 L 26.140625 -35.078125 C 26.140625 -35.421875 26.253906 -35.675781 26.484375 -35.84375 C 26.710938 -36.019531 26.941406 -36.109375 27.171875 -36.109375 L 30.65625 -36.109375 C 30.882812 -36.109375 31.113281 -36.019531 31.34375 -35.84375 C 31.570312 -35.675781 31.6875 -35.421875 31.6875 -35.078125 L 31.6875 -1.03125 C 31.6875 -0.6875 31.570312 -0.425781 31.34375 -0.25 C 31.113281 -0.0820312 30.882812 0 30.65625 0 L 27.171875 0 C 26.671875 0 26.171875 -0.34375 25.671875 -1.03125 Z M 25.671875 -1.03125 "/></g></g></g><g fill="#7648a1" fill-opacity="1"><g transform="translate(192.957987, 108.537029)"><g><path d="M 9.28125 -22.53125 L 9.28125 -13.578125 C 9.28125 -11.367188 9.773438 -9.628906 10.765625 -8.359375 C 11.765625 -7.097656 13 -6.21875 14.46875 -5.71875 C 15.9375 -5.226562 17.398438 -4.984375 18.859375 -4.984375 C 19.847656 -4.984375 20.878906 -5.03125 21.953125 -5.125 C 23.023438 -5.21875 24.09375 -5.378906 25.15625 -5.609375 C 25.3125 -5.609375 25.460938 -5.570312 25.609375 -5.5 C 25.765625 -5.425781 25.882812 -5.273438 25.96875 -5.046875 L 26.484375 -1.4375 C 26.484375 -1.351562 26.441406 -1.21875 26.359375 -1.03125 C 26.285156 -0.84375 26.132812 -0.707031 25.90625 -0.625 C 24.601562 -0.320312 23.1875 -0.0859375 21.65625 0.078125 C 20.132812 0.253906 18.800781 0.34375 17.65625 0.34375 C 15.25 0.34375 13.222656 0.03125 11.578125 -0.59375 C 9.929688 -1.226562 8.59375 -2.039062 7.5625 -3.03125 C 6.53125 -4.03125 5.738281 -5.101562 5.1875 -6.25 C 4.632812 -7.394531 4.25 -8.507812 4.03125 -9.59375 C 3.820312 -10.6875 3.71875 -11.613281 3.71875 -12.375 L 3.71875 -23.734375 C 3.71875 -24.492188 3.820312 -25.414062 4.03125 -26.5 C 4.25 -27.59375 4.632812 -28.710938 5.1875 -29.859375 C 5.738281 -31.003906 6.53125 -32.070312 7.5625 -33.0625 C 8.59375 -34.0625 9.929688 -34.875 11.578125 -35.5 C 13.222656 -36.132812 15.25 -36.453125 17.65625 -36.453125 C 18.800781 -36.453125 20.132812 -36.363281 21.65625 -36.1875 C 23.1875 -36.019531 24.601562 -35.78125 25.90625 -35.46875 C 26.132812 -35.394531 26.285156 -35.257812 26.359375 -35.0625 C 26.441406 -34.875 26.484375 -34.742188 26.484375 -34.671875 L 25.96875 -31.0625 C 25.882812 -30.832031 25.765625 -30.675781 25.609375 -30.59375 C 25.460938 -30.519531 25.3125 -30.484375 25.15625 -30.484375 C 24.09375 -30.710938 23.023438 -30.875 21.953125 -30.96875 C 20.878906 -31.070312 19.847656 -31.125 18.859375 -31.125 C 17.398438 -31.125 15.9375 -30.875 14.46875 -30.375 C 13 -29.875 11.765625 -29.003906 10.765625 -27.765625 C 9.773438 -26.523438 9.28125 -24.78125 9.28125 -22.53125 Z M 9.28125 -22.53125 "/></g></g></g><g fill="#7648a1" fill-opacity="1"><g transform="translate(223.163516, 108.537029)"><g><path d="M 9.578125 -5.5625 L 24.421875 -5.5625 C 24.765625 -5.5625 25.019531 -5.445312 25.1875 -5.21875 C 25.363281 -4.988281 25.453125 -4.757812 25.453125 -4.53125 L 25.453125 -1.03125 C 25.453125 -0.800781 25.363281 -0.570312 25.1875 -0.34375 C 25.019531 -0.113281 24.765625 0 24.421875 0 L 5.046875 0 C 4.703125 0 4.441406 -0.113281 4.265625 -0.34375 C 4.097656 -0.570312 4.015625 -0.800781 4.015625 -1.03125 L 4.015625 -35.078125 C 4.015625 -35.304688 4.097656 -35.535156 4.265625 -35.765625 C 4.441406 -35.992188 4.703125 -36.109375 5.046875 -36.109375 L 24.421875 -36.109375 C 24.765625 -36.109375 25.019531 -35.992188 25.1875 -35.765625 C 25.363281 -35.535156 25.453125 -35.304688 25.453125 -35.078125 L 25.453125 -31.578125 C 25.453125 -31.347656 25.363281 -31.117188 25.1875 -30.890625 C 25.019531 -30.660156 24.765625 -30.546875 24.421875 -30.546875 L 9.578125 -30.546875 L 9.578125 -20.515625 L 21.71875 -20.515625 C 22.0625 -20.515625 22.316406 -20.398438 22.484375 -20.171875 C 22.660156 -19.941406 22.75 -19.710938 22.75 -19.484375 L 22.75 -15.984375 C 22.75 -15.753906 22.660156 -15.523438 22.484375 -15.296875 C 22.316406 -15.066406 22.0625 -14.953125 21.71875 -14.953125 L 9.578125 -14.953125 Z M 9.578125 -5.5625 "/></g></g></g><g fill="#7648a1" fill-opacity="1"><g transform="translate(252.623927, 108.537029)"><g><path d="M 4.015625 -1.03125 L 4.015625 -35.078125 C 4.015625 -35.421875 4.128906 -35.675781 4.359375 -35.84375 C 4.585938 -36.019531 4.816406 -36.109375 5.046875 -36.109375 L 8.546875 -36.109375 C 8.773438 -36.109375 9.003906 -36.019531 9.234375 -35.84375 C 9.460938 -35.675781 9.578125 -35.421875 9.578125 -35.078125 L 9.578125 -5.5625 L 24.421875 -5.5625 C 24.765625 -5.5625 25.019531 -5.445312 25.1875 -5.21875 C 25.363281 -4.988281 25.453125 -4.757812 25.453125 -4.53125 L 25.453125 -1.03125 C 25.453125 -0.800781 25.363281 -0.570312 25.1875 -0.34375 C 25.019531 -0.113281 24.765625 0 24.421875 0 L 5.046875 0 C 4.703125 0 4.441406 -0.113281 4.265625 -0.34375 C 4.097656 -0.570312 4.015625 -0.800781 4.015625 -1.03125 Z M 4.015625 -1.03125 "/></g></g></g></svg>