<svg xmlns="http://www.w3.org/2000/svg" xmlns:xlink="http://www.w3.org/1999/xlink" width="500" zoomAndPan="magnify" viewBox="0 0 375 187.499995" height="250" preserveAspectRatio="xMidYMid meet" version="1.0"><defs><g/><clipPath id="eab537d77f"><path d="M 13.8125 53.234375 L 361.414062 53.234375 L 361.414062 133.765625 L 13.8125 133.765625 Z M 13.8125 53.234375 " clip-rule="nonzero"/></clipPath><clipPath id="f34baf0820"><path d="M 51.957031 53.234375 L 323.042969 53.234375 C 333.160156 53.234375 342.863281 57.253906 350.015625 64.410156 C 357.171875 71.5625 361.1875 81.265625 361.1875 91.382812 L 361.1875 95.617188 C 361.1875 105.734375 357.171875 115.4375 350.015625 122.59375 C 342.863281 129.746094 333.160156 133.765625 323.042969 133.765625 L 51.957031 133.765625 C 41.839844 133.765625 32.136719 129.746094 24.984375 122.59375 C 17.828125 115.4375 13.8125 105.734375 13.8125 95.617188 L 13.8125 91.382812 C 13.8125 81.265625 17.828125 71.5625 24.984375 64.410156 C 32.136719 57.253906 41.839844 53.234375 51.957031 53.234375 Z M 51.957031 53.234375 " clip-rule="nonzero"/></clipPath><clipPath id="37e72d6186"><path d="M 13.816406 53.234375 L 360.886719 53.234375 L 360.886719 134 L 13.816406 134 Z M 13.816406 53.234375 " clip-rule="nonzero"/></clipPath><clipPath id="9f4e43d91a"><path d="M 51.964844 53.234375 L 323.035156 53.234375 C 333.152344 53.234375 342.855469 57.253906 350.007812 64.410156 C 357.164062 71.5625 361.183594 81.265625 361.183594 91.382812 L 361.183594 95.617188 C 361.183594 105.734375 357.164062 115.4375 350.007812 122.589844 C 342.855469 129.742188 333.152344 133.761719 323.035156 133.761719 L 51.964844 133.761719 C 41.847656 133.761719 32.144531 129.742188 24.988281 122.589844 C 17.835938 115.4375 13.816406 105.734375 13.816406 95.617188 L 13.816406 91.382812 C 13.816406 81.265625 17.835938 71.5625 24.988281 64.410156 C 32.144531 57.253906 41.847656 53.234375 51.964844 53.234375 Z M 51.964844 53.234375 " clip-rule="nonzero"/></clipPath></defs><g clip-path="url(#eab537d77f)"><g clip-path="url(#f34baf0820)"><path fill="#ffb1b1" d="M 13.8125 53.234375 L 361.097656 53.234375 L 361.097656 133.765625 L 13.8125 133.765625 Z M 13.8125 53.234375 " fill-opacity="1" fill-rule="nonzero"/></g></g><g clip-path="url(#37e72d6186)"><g clip-path="url(#9f4e43d91a)"><path fill="#7648a1" d="M 63.933594 50.242188 L 72.90625 50.242188 L 72.90625 56.226562 L 63.933594 56.226562 Z M 75.898438 50.242188 L 84.875 50.242188 L 84.875 56.226562 L 75.898438 56.226562 Z M 87.867188 50.242188 L 96.84375 50.242188 L 96.84375 56.226562 L 87.867188 56.226562 Z M 99.835938 50.242188 L 108.8125 50.242188 L 108.8125 56.226562 L 99.835938 56.226562 Z M 111.804688 50.242188 L 120.78125 50.242188 L 120.78125 56.226562 L 111.804688 56.226562 Z M 123.773438 50.242188 L 132.75 50.242188 L 132.75 56.226562 L 123.773438 56.226562 Z M 135.742188 50.242188 L 144.714844 50.242188 L 144.714844 56.226562 L 135.742188 56.226562 Z M 147.707031 50.242188 L 156.683594 50.242188 L 156.683594 56.226562 L 147.707031 56.226562 Z M 159.675781 50.242188 L 168.652344 50.242188 L 168.652344 56.226562 L 159.675781 56.226562 Z M 171.644531 50.242188 L 180.621094 50.242188 L 180.621094 56.226562 L 171.644531 56.226562 Z M 183.613281 50.242188 L 192.589844 50.242188 L 192.589844 56.226562 L 183.613281 56.226562 Z M 195.582031 50.242188 L 204.558594 50.242188 L 204.558594 56.226562 L 195.582031 56.226562 Z M 207.550781 50.242188 L 216.523438 50.242188 L 216.523438 56.226562 L 207.550781 56.226562 Z M 219.515625 50.242188 L 228.492188 50.242188 L 228.492188 56.226562 L 219.515625 56.226562 Z M 231.484375 50.242188 L 240.460938 50.242188 L 240.460938 56.226562 L 231.484375 56.226562 Z M 243.453125 50.242188 L 252.429688 50.242188 L 252.429688 56.226562 L 243.453125 56.226562 Z M 255.421875 50.242188 L 264.398438 50.242188 L 264.398438 56.226562 L 255.421875 56.226562 Z M 267.390625 50.242188 L 276.367188 50.242188 L 276.367188 56.226562 L 267.390625 56.226562 Z M 279.355469 50.242188 L 288.332031 50.242188 L 288.332031 56.226562 L 279.355469 56.226562 Z M 291.324219 50.242188 L 300.300781 50.242188 L 300.300781 56.226562 L 291.324219 56.226562 Z M 303.292969 50.242188 L 312.269531 50.242188 L 312.269531 56.226562 L 303.292969 56.226562 Z M 315.261719 50.242188 L 323.035156 50.242188 C 323.472656 50.242188 323.90625 50.25 324.34375 50.265625 L 324.152344 56.246094 C 323.78125 56.234375 323.410156 56.226562 323.035156 56.226562 L 315.261719 56.226562 Z M 327.570312 50.492188 C 330.792969 50.851562 333.929688 51.578125 336.980469 52.679688 L 334.953125 58.308594 C 332.347656 57.371094 329.664062 56.746094 326.910156 56.441406 Z M 339.972656 53.890625 C 342.929688 55.226562 345.6875 56.886719 348.25 58.875 L 344.582031 63.605469 C 342.394531 61.90625 340.035156 60.484375 337.507812 59.34375 Z M 350.722656 60.957031 C 351.203125 61.390625 351.667969 61.835938 352.125 62.292969 C 353.964844 64.128906 355.613281 66.125 357.070312 68.273438 L 352.121094 71.636719 C 350.875 69.796875 349.464844 68.09375 347.894531 66.523438 C 347.503906 66.132812 347.105469 65.753906 346.695312 65.382812 Z M 358.78125 71.019531 C 360.386719 73.835938 361.640625 76.804688 362.546875 79.917969 L 356.796875 81.585938 C 356.027344 78.925781 354.953125 76.390625 353.582031 73.980469 Z M 363.324219 83.058594 C 363.890625 85.804688 364.175781 88.578125 364.175781 91.382812 L 364.175781 92.601562 L 358.191406 92.601562 L 358.191406 91.382812 C 358.191406 88.984375 357.949219 86.613281 357.464844 84.269531 Z M 364.175781 95.589844 L 364.175781 95.617188 C 364.175781 98.855469 363.796875 102.050781 363.042969 105.199219 L 357.222656 103.804688 C 357.867188 101.113281 358.191406 98.386719 358.191406 95.617188 L 358.191406 95.589844 Z M 362.167969 108.3125 C 361.164062 111.398438 359.820312 114.324219 358.125 117.089844 L 353.019531 113.96875 C 354.46875 111.601562 355.621094 109.101562 356.476562 106.464844 Z M 356.335938 119.773438 C 355.0625 121.527344 353.660156 123.171875 352.125 124.707031 C 351.363281 125.46875 350.574219 126.199219 349.753906 126.898438 L 345.867188 122.347656 C 346.566406 121.75 347.242188 121.125 347.894531 120.472656 C 349.203125 119.164062 350.402344 117.757812 351.492188 116.261719 Z M 347.222656 128.894531 C 344.597656 130.800781 341.789062 132.375 338.792969 133.617188 L 336.5 128.089844 C 339.0625 127.027344 341.460938 125.683594 343.703125 124.054688 Z M 335.765625 134.734375 C 332.679688 135.738281 329.519531 136.371094 326.289062 136.625 L 325.816406 130.660156 C 328.578125 130.441406 331.277344 129.902344 333.914062 129.046875 Z M 323.042969 136.753906 L 314.070312 136.753906 L 314.070312 130.769531 L 323.042969 130.769531 Z M 311.078125 136.753906 L 302.101562 136.753906 L 302.101562 130.769531 L 311.078125 130.769531 Z M 299.109375 136.753906 L 290.132812 136.753906 L 290.132812 130.769531 L 299.109375 130.769531 Z M 287.140625 136.753906 L 278.164062 136.753906 L 278.164062 130.769531 L 287.140625 130.769531 Z M 275.171875 136.753906 L 266.195312 136.753906 L 266.195312 130.769531 L 275.171875 130.769531 Z M 263.203125 136.753906 L 254.226562 136.753906 L 254.226562 130.769531 L 263.203125 130.769531 Z M 251.234375 136.753906 L 242.261719 136.753906 L 242.261719 130.769531 L 251.234375 130.769531 Z M 239.269531 136.753906 L 230.292969 136.753906 L 230.292969 130.769531 L 239.269531 130.769531 Z M 227.300781 136.753906 L 218.324219 136.753906 L 218.324219 130.769531 L 227.300781 130.769531 Z M 215.332031 136.753906 L 206.355469 136.753906 L 206.355469 130.769531 L 215.332031 130.769531 Z M 203.363281 136.753906 L 194.386719 136.753906 L 194.386719 130.769531 L 203.363281 130.769531 Z M 191.394531 136.753906 L 182.417969 136.753906 L 182.417969 130.769531 L 191.394531 130.769531 Z M 179.425781 136.753906 L 170.453125 136.753906 L 170.453125 130.769531 L 179.425781 130.769531 Z M 167.460938 136.753906 L 158.484375 136.753906 L 158.484375 130.769531 L 167.460938 130.769531 Z M 155.492188 136.753906 L 146.515625 136.753906 L 146.515625 130.769531 L 155.492188 130.769531 Z M 143.523438 136.753906 L 134.546875 136.753906 L 134.546875 130.769531 L 143.523438 130.769531 Z M 131.554688 136.753906 L 122.578125 136.753906 L 122.578125 130.769531 L 131.554688 130.769531 Z M 119.585938 136.753906 L 110.609375 136.753906 L 110.609375 130.769531 L 119.585938 130.769531 Z M 107.617188 136.753906 L 98.644531 136.753906 L 98.644531 130.769531 L 107.617188 130.769531 Z M 95.652344 136.753906 L 86.675781 136.753906 L 86.675781 130.769531 L 95.652344 130.769531 Z M 83.683594 136.753906 L 74.707031 136.753906 L 74.707031 130.769531 L 83.683594 130.769531 Z M 71.714844 136.753906 L 62.738281 136.753906 L 62.738281 130.769531 L 71.714844 130.769531 Z M 59.746094 136.753906 L 51.964844 136.753906 C 51.53125 136.753906 51.097656 136.75 50.667969 136.734375 L 50.855469 130.753906 C 51.222656 130.765625 51.59375 130.769531 51.964844 130.769531 L 59.746094 130.769531 Z M 47.4375 136.503906 C 44.214844 136.148438 41.078125 135.421875 38.027344 134.320312 L 40.054688 128.691406 C 42.660156 129.632812 45.34375 130.253906 48.097656 130.558594 Z M 35.035156 133.109375 C 32.078125 131.777344 29.320312 130.117188 26.757812 128.128906 L 30.425781 123.398438 C 32.613281 125.097656 34.972656 126.515625 37.496094 127.65625 Z M 24.28125 126.046875 C 23.800781 125.613281 23.332031 125.164062 22.875 124.707031 C 21.039062 122.871094 19.390625 120.878906 17.933594 118.730469 L 22.882812 115.371094 C 24.128906 117.203125 25.535156 118.90625 27.105469 120.472656 C 27.496094 120.867188 27.898438 121.25 28.308594 121.621094 Z M 16.222656 115.988281 C 14.617188 113.171875 13.363281 110.203125 12.457031 107.089844 L 18.203125 105.417969 C 18.976562 108.082031 20.050781 110.617188 21.421875 113.023438 Z M 11.675781 103.949219 C 11.109375 101.199219 10.824219 98.421875 10.824219 95.617188 L 10.824219 94.40625 L 16.808594 94.40625 L 16.808594 95.617188 C 16.808594 98.015625 17.050781 100.390625 17.539062 102.738281 Z M 10.824219 91.414062 L 10.824219 91.382812 C 10.824219 88.144531 11.203125 84.953125 11.953125 81.808594 L 17.773438 83.199219 C 17.128906 85.890625 16.808594 88.617188 16.808594 91.382812 L 16.808594 91.414062 Z M 12.828125 78.695312 C 13.832031 75.609375 15.175781 72.683594 16.871094 69.914062 L 21.972656 73.039062 C 20.527344 75.402344 19.378906 77.902344 18.523438 80.542969 Z M 18.660156 67.230469 C 19.933594 65.476562 21.339844 63.828125 22.875 62.292969 C 23.632812 61.535156 24.421875 60.804688 25.238281 60.109375 L 29.125 64.65625 C 28.425781 65.253906 27.753906 65.875 27.105469 66.523438 C 25.792969 67.835938 24.59375 69.242188 23.503906 70.746094 Z M 27.769531 58.109375 C 30.394531 56.203125 33.203125 54.628906 36.199219 53.382812 L 38.492188 58.910156 C 35.929688 59.972656 33.53125 61.320312 31.289062 62.949219 Z M 39.226562 52.265625 C 42.308594 51.261719 45.46875 50.628906 48.703125 50.371094 L 49.175781 56.339844 C 46.414062 56.558594 43.714844 57.097656 41.078125 57.953125 Z M 51.945312 50.242188 L 60.941406 50.242188 L 60.941406 56.226562 L 51.945312 56.226562 Z M 51.945312 50.242188 " fill-opacity="1" fill-rule="nonzero"/></g></g><g fill="#7648a1" fill-opacity="1"><g transform="translate(34.318266, 105.844205)"><g><path d="M 13.6875 -28.953125 L 9.078125 -28.953125 L 9.078125 -5.265625 L 13.6875 -5.265625 C 14.226562 -5.265625 14.90625 -5.335938 15.71875 -5.484375 C 16.539062 -5.628906 17.367188 -5.9375 18.203125 -6.40625 C 19.035156 -6.875 19.722656 -7.609375 20.265625 -8.609375 C 20.804688 -9.609375 21.078125 -10.941406 21.078125 -12.609375 L 21.078125 -21.625 C 21.078125 -23.320312 20.804688 -24.660156 20.265625 -25.640625 C 19.722656 -26.617188 19.035156 -27.34375 18.203125 -27.8125 C 17.367188 -28.28125 16.539062 -28.585938 15.71875 -28.734375 C 14.90625 -28.878906 14.226562 -28.953125 13.6875 -28.953125 Z M 13.96875 0 L 4.78125 0 C 4.457031 0 4.210938 -0.109375 4.046875 -0.328125 C 3.878906 -0.546875 3.796875 -0.765625 3.796875 -0.984375 L 3.796875 -33.25 C 3.796875 -33.570312 3.90625 -33.816406 4.125 -33.984375 C 4.34375 -34.148438 4.5625 -34.234375 4.78125 -34.234375 L 13.96875 -34.234375 C 16.425781 -34.234375 18.429688 -33.878906 19.984375 -33.171875 C 21.546875 -32.460938 22.769531 -31.59375 23.65625 -30.5625 C 24.539062 -29.53125 25.164062 -28.5 25.53125 -27.46875 C 25.894531 -26.4375 26.117188 -25.566406 26.203125 -24.859375 C 26.296875 -24.148438 26.34375 -23.796875 26.34375 -23.796875 L 26.34375 -10.4375 C 26.34375 -10.4375 26.296875 -10.082031 26.203125 -9.375 C 26.117188 -8.664062 25.894531 -7.796875 25.53125 -6.765625 C 25.164062 -5.734375 24.539062 -4.703125 23.65625 -3.671875 C 22.769531 -2.640625 21.546875 -1.769531 19.984375 -1.0625 C 18.429688 -0.351562 16.425781 0 13.96875 0 Z M 13.96875 0 "/></g></g></g><g fill="#7648a1" fill-opacity="1"><g transform="translate(63.92475, 105.844205)"><g><path d="M 9.078125 -5.265625 L 23.140625 -5.265625 C 23.460938 -5.265625 23.707031 -5.15625 23.875 -4.9375 C 24.039062 -4.726562 24.125 -4.515625 24.125 -4.296875 L 24.125 -0.984375 C 24.125 -0.765625 24.039062 -0.546875 23.875 -0.328125 C 23.707031 -0.109375 23.460938 0 23.140625 0 L 4.78125 0 C 4.457031 0 4.210938 -0.109375 4.046875 -0.328125 C 3.878906 -0.546875 3.796875 -0.765625 3.796875 -0.984375 L 3.796875 -33.25 C 3.796875 -33.46875 3.878906 -33.6875 4.046875 -33.90625 C 4.210938 -34.125 4.457031 -34.234375 4.78125 -34.234375 L 23.140625 -34.234375 C 23.460938 -34.234375 23.707031 -34.125 23.875 -33.90625 C 24.039062 -33.6875 24.125 -33.46875 24.125 -33.25 L 24.125 -29.9375 C 24.125 -29.71875 24.039062 -29.5 23.875 -29.28125 C 23.707031 -29.0625 23.460938 -28.953125 23.140625 -28.953125 L 9.078125 -28.953125 L 9.078125 -19.453125 L 20.59375 -19.453125 C 20.914062 -19.453125 21.15625 -19.34375 21.3125 -19.125 C 21.476562 -18.90625 21.5625 -18.6875 21.5625 -18.46875 L 21.5625 -15.15625 C 21.5625 -14.9375 21.476562 -14.71875 21.3125 -14.5 C 21.15625 -14.28125 20.914062 -14.171875 20.59375 -14.171875 L 9.078125 -14.171875 Z M 9.078125 -5.265625 "/></g></g></g><g fill="#7648a1" fill-opacity="1"><g transform="translate(91.847194, 105.844205)"><g><path d="M 3.796875 -0.984375 L 3.796875 -33.25 C 3.796875 -33.570312 3.90625 -33.816406 4.125 -33.984375 C 4.34375 -34.148438 4.5625 -34.234375 4.78125 -34.234375 L 8.09375 -34.234375 C 8.3125 -34.234375 8.53125 -34.148438 8.75 -33.984375 C 8.96875 -33.816406 9.078125 -33.570312 9.078125 -33.25 L 9.078125 -5.265625 L 23.140625 -5.265625 C 23.460938 -5.265625 23.707031 -5.15625 23.875 -4.9375 C 24.039062 -4.726562 24.125 -4.515625 24.125 -4.296875 L 24.125 -0.984375 C 24.125 -0.765625 24.039062 -0.546875 23.875 -0.328125 C 23.707031 -0.109375 23.460938 0 23.140625 0 L 4.78125 0 C 4.457031 0 4.210938 -0.109375 4.046875 -0.328125 C 3.878906 -0.546875 3.796875 -0.765625 3.796875 -0.984375 Z M 3.796875 -0.984375 "/></g></g></g><g fill="#7648a1" fill-opacity="1"><g transform="translate(119.226406, 105.844205)"><g><path d="M 9.078125 -5.265625 L 23.140625 -5.265625 C 23.460938 -5.265625 23.707031 -5.15625 23.875 -4.9375 C 24.039062 -4.726562 24.125 -4.515625 24.125 -4.296875 L 24.125 -0.984375 C 24.125 -0.765625 24.039062 -0.546875 23.875 -0.328125 C 23.707031 -0.109375 23.460938 0 23.140625 0 L 4.78125 0 C 4.457031 0 4.210938 -0.109375 4.046875 -0.328125 C 3.878906 -0.546875 3.796875 -0.765625 3.796875 -0.984375 L 3.796875 -33.25 C 3.796875 -33.46875 3.878906 -33.6875 4.046875 -33.90625 C 4.210938 -34.125 4.457031 -34.234375 4.78125 -34.234375 L 23.140625 -34.234375 C 23.460938 -34.234375 23.707031 -34.125 23.875 -33.90625 C 24.039062 -33.6875 24.125 -33.46875 24.125 -33.25 L 24.125 -29.9375 C 24.125 -29.71875 24.039062 -29.5 23.875 -29.28125 C 23.707031 -29.0625 23.460938 -28.953125 23.140625 -28.953125 L 9.078125 -28.953125 L 9.078125 -19.453125 L 20.59375 -19.453125 C 20.914062 -19.453125 21.15625 -19.34375 21.3125 -19.125 C 21.476562 -18.90625 21.5625 -18.6875 21.5625 -18.46875 L 21.5625 -15.15625 C 21.5625 -14.9375 21.476562 -14.71875 21.3125 -14.5 C 21.15625 -14.28125 20.914062 -14.171875 20.59375 -14.171875 L 9.078125 -14.171875 Z M 9.078125 -5.265625 "/></g></g></g><g fill="#7648a1" fill-opacity="1"><g transform="translate(147.14885, 105.844205)"><g><path d="M 3.15625 -34.234375 L 24.5 -34.234375 C 24.820312 -34.234375 25.066406 -34.125 25.234375 -33.90625 C 25.398438 -33.6875 25.484375 -33.46875 25.484375 -33.25 L 25.484375 -29.9375 C 25.484375 -29.71875 25.398438 -29.5 25.234375 -29.28125 C 25.066406 -29.0625 24.820312 -28.953125 24.5 -28.953125 L 16.46875 -28.953125 L 16.46875 -0.984375 C 16.46875 -0.648438 16.359375 -0.398438 16.140625 -0.234375 C 15.921875 -0.078125 15.703125 0 15.484375 0 L 12.171875 0 C 11.953125 0 11.734375 -0.078125 11.515625 -0.234375 C 11.296875 -0.398438 11.1875 -0.648438 11.1875 -0.984375 L 11.1875 -28.953125 L 3.15625 -28.953125 C 2.820312 -28.953125 2.570312 -29.0625 2.40625 -29.28125 C 2.25 -29.5 2.171875 -29.71875 2.171875 -29.9375 L 2.171875 -33.25 C 2.171875 -33.46875 2.25 -33.6875 2.40625 -33.90625 C 2.570312 -34.125 2.820312 -34.234375 3.15625 -34.234375 Z M 3.15625 -34.234375 "/></g></g></g><g fill="#7648a1" fill-opacity="1"><g transform="translate(174.799672, 105.844205)"><g><path d="M 9.078125 -5.265625 L 23.140625 -5.265625 C 23.460938 -5.265625 23.707031 -5.15625 23.875 -4.9375 C 24.039062 -4.726562 24.125 -4.515625 24.125 -4.296875 L 24.125 -0.984375 C 24.125 -0.765625 24.039062 -0.546875 23.875 -0.328125 C 23.707031 -0.109375 23.460938 0 23.140625 0 L 4.78125 0 C 4.457031 0 4.210938 -0.109375 4.046875 -0.328125 C 3.878906 -0.546875 3.796875 -0.765625 3.796875 -0.984375 L 3.796875 -33.25 C 3.796875 -33.46875 3.878906 -33.6875 4.046875 -33.90625 C 4.210938 -34.125 4.457031 -34.234375 4.78125 -34.234375 L 23.140625 -34.234375 C 23.460938 -34.234375 23.707031 -34.125 23.875 -33.90625 C 24.039062 -33.6875 24.125 -33.46875 24.125 -33.25 L 24.125 -29.9375 C 24.125 -29.71875 24.039062 -29.5 23.875 -29.28125 C 23.707031 -29.0625 23.460938 -28.953125 23.140625 -28.953125 L 9.078125 -28.953125 L 9.078125 -19.453125 L 20.59375 -19.453125 C 20.914062 -19.453125 21.15625 -19.34375 21.3125 -19.125 C 21.476562 -18.90625 21.5625 -18.6875 21.5625 -18.46875 L 21.5625 -15.15625 C 21.5625 -14.9375 21.476562 -14.71875 21.3125 -14.5 C 21.15625 -14.28125 20.914062 -14.171875 20.59375 -14.171875 L 9.078125 -14.171875 Z M 9.078125 -5.265625 "/></g></g></g><g fill="#7648a1" fill-opacity="1"><g transform="translate(202.72464, 105.844205)"><g/></g></g><g fill="#7648a1" fill-opacity="1"><g transform="translate(213.535083, 105.844205)"><g/></g></g><g fill="#7648a1" fill-opacity="1"><g transform="translate(224.346667, 105.844205)"><g><path d="M 13.6875 -28.953125 L 9.078125 -28.953125 L 9.078125 -5.265625 L 13.6875 -5.265625 C 14.226562 -5.265625 14.90625 -5.335938 15.71875 -5.484375 C 16.539062 -5.628906 17.367188 -5.9375 18.203125 -6.40625 C 19.035156 -6.875 19.722656 -7.609375 20.265625 -8.609375 C 20.804688 -9.609375 21.078125 -10.941406 21.078125 -12.609375 L 21.078125 -21.625 C 21.078125 -23.320312 20.804688 -24.660156 20.265625 -25.640625 C 19.722656 -26.617188 19.035156 -27.34375 18.203125 -27.8125 C 17.367188 -28.28125 16.539062 -28.585938 15.71875 -28.734375 C 14.90625 -28.878906 14.226562 -28.953125 13.6875 -28.953125 Z M 13.96875 0 L 4.78125 0 C 4.457031 0 4.210938 -0.109375 4.046875 -0.328125 C 3.878906 -0.546875 3.796875 -0.765625 3.796875 -0.984375 L 3.796875 -33.25 C 3.796875 -33.570312 3.90625 -33.816406 4.125 -33.984375 C 4.34375 -34.148438 4.5625 -34.234375 4.78125 -34.234375 L 13.96875 -34.234375 C 16.425781 -34.234375 18.429688 -33.878906 19.984375 -33.171875 C 21.546875 -32.460938 22.769531 -31.59375 23.65625 -30.5625 C 24.539062 -29.53125 25.164062 -28.5 25.53125 -27.46875 C 25.894531 -26.4375 26.117188 -25.566406 26.203125 -24.859375 C 26.296875 -24.148438 26.34375 -23.796875 26.34375 -23.796875 L 26.34375 -10.4375 C 26.34375 -10.4375 26.296875 -10.082031 26.203125 -9.375 C 26.117188 -8.664062 25.894531 -7.796875 25.53125 -6.765625 C 25.164062 -5.734375 24.539062 -4.703125 23.65625 -3.671875 C 22.769531 -2.640625 21.546875 -1.769531 19.984375 -1.0625 C 18.429688 -0.351562 16.425781 0 13.96875 0 Z M 13.96875 0 "/></g></g></g><g fill="#7648a1" fill-opacity="1"><g transform="translate(253.953151, 105.844205)"><g><path d="M 9.078125 -5.265625 L 23.140625 -5.265625 C 23.460938 -5.265625 23.707031 -5.15625 23.875 -4.9375 C 24.039062 -4.726562 24.125 -4.515625 24.125 -4.296875 L 24.125 -0.984375 C 24.125 -0.765625 24.039062 -0.546875 23.875 -0.328125 C 23.707031 -0.109375 23.460938 0 23.140625 0 L 4.78125 0 C 4.457031 0 4.210938 -0.109375 4.046875 -0.328125 C 3.878906 -0.546875 3.796875 -0.765625 3.796875 -0.984375 L 3.796875 -33.25 C 3.796875 -33.46875 3.878906 -33.6875 4.046875 -33.90625 C 4.210938 -34.125 4.457031 -34.234375 4.78125 -34.234375 L 23.140625 -34.234375 C 23.460938 -34.234375 23.707031 -34.125 23.875 -33.90625 C 24.039062 -33.6875 24.125 -33.46875 24.125 -33.25 L 24.125 -29.9375 C 24.125 -29.71875 24.039062 -29.5 23.875 -29.28125 C 23.707031 -29.0625 23.460938 -28.953125 23.140625 -28.953125 L 9.078125 -28.953125 L 9.078125 -19.453125 L 20.59375 -19.453125 C 20.914062 -19.453125 21.15625 -19.34375 21.3125 -19.125 C 21.476562 -18.90625 21.5625 -18.6875 21.5625 -18.46875 L 21.5625 -15.15625 C 21.5625 -14.9375 21.476562 -14.71875 21.3125 -14.5 C 21.15625 -14.28125 20.914062 -14.171875 20.59375 -14.171875 L 9.078125 -14.171875 Z M 9.078125 -5.265625 "/></g></g></g><g fill="#7648a1" fill-opacity="1"><g transform="translate(281.875595, 105.844205)"><g><path d="M 8.796875 -21.34375 L 8.796875 -12.875 C 8.796875 -10.769531 9.265625 -9.117188 10.203125 -7.921875 C 11.148438 -6.734375 12.320312 -5.898438 13.71875 -5.421875 C 15.113281 -4.953125 16.5 -4.71875 17.875 -4.71875 C 18.8125 -4.71875 19.785156 -4.765625 20.796875 -4.859375 C 21.816406 -4.953125 22.832031 -5.109375 23.84375 -5.328125 C 23.988281 -5.328125 24.132812 -5.289062 24.28125 -5.21875 C 24.425781 -5.144531 24.535156 -5 24.609375 -4.78125 L 25.09375 -1.359375 C 25.09375 -1.285156 25.054688 -1.15625 24.984375 -0.96875 C 24.910156 -0.789062 24.769531 -0.664062 24.5625 -0.59375 C 23.320312 -0.300781 21.976562 -0.078125 20.53125 0.078125 C 19.082031 0.242188 17.816406 0.328125 16.734375 0.328125 C 14.453125 0.328125 12.53125 0.03125 10.96875 -0.5625 C 9.414062 -1.164062 8.148438 -1.9375 7.171875 -2.875 C 6.191406 -3.820312 5.4375 -4.835938 4.90625 -5.921875 C 4.382812 -7.003906 4.023438 -8.0625 3.828125 -9.09375 C 3.628906 -10.125 3.53125 -11.003906 3.53125 -11.734375 L 3.53125 -22.484375 C 3.53125 -23.210938 3.628906 -24.09375 3.828125 -25.125 C 4.023438 -26.15625 4.382812 -27.210938 4.90625 -28.296875 C 5.4375 -29.390625 6.191406 -30.40625 7.171875 -31.34375 C 8.148438 -32.289062 9.414062 -33.0625 10.96875 -33.65625 C 12.53125 -34.25 14.453125 -34.546875 16.734375 -34.546875 C 17.816406 -34.546875 19.082031 -34.460938 20.53125 -34.296875 C 21.976562 -34.140625 23.320312 -33.914062 24.5625 -33.625 C 24.769531 -33.550781 24.910156 -33.425781 24.984375 -33.25 C 25.054688 -33.070312 25.09375 -32.945312 25.09375 -32.875 L 24.609375 -29.453125 C 24.535156 -29.234375 24.425781 -29.085938 24.28125 -29.015625 C 24.132812 -28.941406 23.988281 -28.90625 23.84375 -28.90625 C 22.832031 -29.125 21.816406 -29.273438 20.796875 -29.359375 C 19.785156 -29.453125 18.8125 -29.5 17.875 -29.5 C 16.5 -29.5 15.113281 -29.265625 13.71875 -28.796875 C 12.320312 -28.328125 11.148438 -27.503906 10.203125 -26.328125 C 9.265625 -25.148438 8.796875 -23.488281 8.796875 -21.34375 Z M 8.796875 -21.34375 "/></g></g></g><g fill="#7648a1" fill-opacity="1"><g transform="translate(310.504248, 105.844205)"><g><path d="M 21.953125 -0.984375 L 14.28125 -15.703125 L 9.078125 -7.9375 L 9.078125 -0.984375 C 9.078125 -0.648438 8.96875 -0.398438 8.75 -0.234375 C 8.53125 -0.078125 8.3125 0 8.09375 0 L 4.78125 0 C 4.5625 0 4.34375 -0.078125 4.125 -0.234375 C 3.90625 -0.398438 3.796875 -0.648438 3.796875 -0.984375 L 3.796875 -33.25 C 3.796875 -33.570312 3.90625 -33.816406 4.125 -33.984375 C 4.34375 -34.148438 4.5625 -34.234375 4.78125 -34.234375 L 8.09375 -34.234375 C 8.3125 -34.234375 8.53125 -34.148438 8.75 -33.984375 C 8.96875 -33.816406 9.078125 -33.570312 9.078125 -33.25 L 9.078125 -17.5 L 19.5625 -33.40625 C 19.957031 -33.957031 20.351562 -34.234375 20.75 -34.234375 L 24.828125 -34.234375 C 25.046875 -34.234375 25.265625 -34.148438 25.484375 -33.984375 C 25.703125 -33.816406 25.8125 -33.570312 25.8125 -33.25 L 17.546875 -20.8125 L 27.984375 -0.984375 C 27.984375 -0.648438 27.875 -0.398438 27.65625 -0.234375 C 27.4375 -0.078125 27.21875 0 27 0 L 23.25 0 C 22.78125 0 22.347656 -0.328125 21.953125 -0.984375 Z M 21.953125 -0.984375 "/></g></g></g></svg>