<svg xmlns="http://www.w3.org/2000/svg" xmlns:xlink="http://www.w3.org/1999/xlink" width="500" zoomAndPan="magnify" viewBox="0 0 375 374.999991" height="500" preserveAspectRatio="xMidYMid meet" version="1.0"><defs><clipPath id="b91f25c656"><path d="M 179.09375 9 L 250.34375 9 L 250.34375 80.832031 L 179.09375 80.832031 Z M 179.09375 9 " clip-rule="nonzero"/></clipPath></defs><path fill="#7648a1" d="M 354.605469 54.679688 L 320.910156 20.984375 C 313.945312 14.019531 302.632812 14.019531 295.667969 20.984375 L 33.128906 283.523438 C 32.355469 284.296875 31.820312 285.25 31.582031 286.261719 L 14.734375 353.59375 C 14.257812 355.617188 14.792969 357.761719 16.28125 359.25 C 17.414062 360.378906 18.960938 360.976562 20.507812 360.976562 C 20.984375 360.976562 21.460938 360.976562 21.9375 360.796875 L 89.269531 343.949219 C 90.339844 343.710938 91.292969 343.175781 92.007812 342.402344 L 354.605469 79.921875 C 361.570312 72.957031 361.570312 61.644531 354.605469 54.679688 Z M 308.289062 109.390625 L 266.199219 67.300781 L 274.59375 58.90625 L 316.683594 100.996094 Z M 91.054688 326.625 L 89.03125 316.503906 C 88.554688 314.125 86.710938 312.277344 84.386719 311.859375 L 67.242188 308.40625 L 63.789062 291.261719 C 63.3125 288.882812 61.46875 287.035156 59.144531 286.621094 L 49.023438 284.59375 L 257.804688 75.695312 L 299.894531 117.785156 Z M 41.582031 295.191406 L 52.835938 297.453125 L 56.289062 314.597656 C 56.765625 316.980469 58.609375 318.828125 60.933594 319.242188 L 78.078125 322.695312 L 80.339844 333.949219 L 28.664062 346.867188 Z M 346.210938 71.46875 L 325.136719 92.542969 L 283.046875 50.453125 L 304.121094 29.378906 C 306.445312 27.058594 310.195312 27.058594 312.515625 29.378906 L 346.210938 63.074219 C 348.53125 65.398438 348.53125 69.148438 346.210938 71.46875 Z M 346.210938 71.46875 " fill-opacity="1" fill-rule="nonzero"/><g clip-path="url(#b91f25c656)"><path fill="#eedcfe" d="M 214.554688 79.59375 C 214.554688 78.789062 214.304688 76.71875 214.140625 76.160156 C 214.078125 75.957031 213.988281 75.375 213.933594 74.859375 C 213.878906 74.34375 213.761719 73.480469 213.671875 72.9375 C 213.585938 72.394531 213.417969 71.246094 213.308594 70.390625 C 213.035156 68.304688 212.898438 67.652344 212.050781 64.328125 C 211.3125 61.414062 210.40625 58.5 209.605469 56.425781 C 208.378906 53.242188 207.160156 51.820312 204.628906 50.585938 C 202.671875 49.632812 199.339844 48.527344 195.375 47.507812 C 192.253906 46.707031 191.289062 46.503906 189.242188 46.226562 C 188.386719 46.109375 187.214844 45.941406 186.644531 45.855469 C 186.074219 45.769531 185.234375 45.652344 184.773438 45.601562 C 184.320312 45.550781 183.613281 45.4375 183.214844 45.347656 C 182.121094 45.109375 180.964844 44.972656 179.984375 44.972656 C 179.472656 44.972656 179.109375 44.929688 179.109375 44.871094 C 179.109375 44.808594 179.488281 44.765625 180.042969 44.765625 C 180.976562 44.765625 182.730469 44.546875 183.523438 44.335938 C 183.75 44.273438 184.335938 44.183594 184.820312 44.136719 C 185.308594 44.085938 186.15625 43.972656 186.695312 43.886719 C 187.242188 43.796875 188.246094 43.652344 188.929688 43.566406 C 191.039062 43.296875 192.351562 43.027344 195.429688 42.226562 C 198.578125 41.40625 202.042969 40.300781 203.871094 39.53125 C 206.277344 38.519531 207.808594 37.160156 208.824219 35.128906 C 209.742188 33.296875 211.046875 29.375 212.046875 25.429688 C 212.902344 22.078125 213.035156 21.429688 213.308594 19.347656 C 213.417969 18.492188 213.585938 17.34375 213.671875 16.800781 C 213.761719 16.257812 213.878906 15.394531 213.933594 14.878906 C 213.988281 14.363281 214.078125 13.78125 214.140625 13.578125 C 214.304688 13.019531 214.554688 10.949219 214.554688 10.144531 C 214.554688 8.863281 214.734375 9.378906 214.796875 10.851562 C 214.832031 11.652344 214.953125 12.714844 215.070312 13.269531 C 215.1875 13.8125 215.332031 14.652344 215.382812 15.140625 C 215.4375 15.625 215.554688 16.46875 215.640625 17.011719 C 215.730469 17.554688 215.894531 18.699219 216.007812 19.558594 C 216.273438 21.582031 216.492188 22.621094 217.3125 25.78125 C 218.285156 29.503906 219.632812 33.519531 220.445312 35.132812 C 221.445312 37.113281 222.894531 38.425781 225.191406 39.4375 C 227.992188 40.667969 235.988281 42.953125 238.933594 43.355469 C 239.617188 43.453125 240.8125 43.621094 241.582031 43.734375 C 242.355469 43.847656 243.335938 43.988281 243.765625 44.046875 C 244.195312 44.101562 245.0625 44.242188 245.6875 44.351562 C 247.472656 44.675781 248.21875 44.761719 249.195312 44.761719 C 249.699219 44.765625 250.105469 44.804688 250.105469 44.855469 C 250.105469 44.902344 249.507812 44.972656 248.78125 45.007812 C 248.054688 45.046875 247.132812 45.140625 246.726562 45.21875 C 245.917969 45.375 244.792969 45.558594 243.765625 45.695312 C 242.890625 45.8125 240.457031 46.167969 238.671875 46.4375 C 237.015625 46.6875 232.335938 47.863281 229.742188 48.675781 C 227.492188 49.382812 225.125 50.28125 224.222656 50.761719 C 222.628906 51.617188 221.425781 52.820312 220.546875 54.433594 C 219.71875 55.960938 218.328125 60.0625 217.304688 64.003906 C 216.46875 67.242188 216.269531 68.183594 216.007812 70.179688 C 215.894531 71.039062 215.734375 72.183594 215.640625 72.726562 C 215.554688 73.269531 215.4375 74.113281 215.382812 74.597656 C 215.332031 75.085938 215.1875 75.925781 215.070312 76.46875 C 214.953125 77.023438 214.832031 78.085938 214.796875 78.886719 C 214.734375 80.359375 214.554688 80.875 214.554688 79.59375 Z M 195.851562 33.160156 C 195.457031 30.328125 194.605469 27.507812 193.894531 26.675781 C 193.695312 26.445312 193.320312 26.144531 193.050781 26.011719 C 191.582031 25.273438 188.414062 24.515625 185.449219 24.195312 L 184.773438 24.121094 L 185.449219 24.0625 C 187.695312 23.859375 190.398438 23.285156 192.246094 22.617188 C 193.851562 22.035156 194.328125 21.410156 195.050781 18.914062 C 195.484375 17.429688 195.652344 16.585938 195.910156 14.75 C 196.011719 13.992188 196.125 13.429688 196.164062 13.5 C 196.203125 13.574219 196.339844 14.355469 196.464844 15.242188 C 196.710938 17.015625 196.9375 18.015625 197.425781 19.503906 C 198.125 21.660156 198.5 22.070312 200.351562 22.71875 C 202.097656 23.332031 204.597656 23.851562 206.8125 24.058594 L 207.539062 24.125 L 206.914062 24.191406 C 205.441406 24.34375 203.191406 24.730469 202.101562 25.019531 C 199.902344 25.605469 198.875 26.066406 198.316406 26.726562 C 197.742188 27.40625 196.871094 30.308594 196.511719 32.757812 C 196.367188 33.730469 196.214844 34.613281 196.171875 34.71875 C 196.125 34.835938 196.003906 34.242188 195.851562 33.160156 Z M 195.851562 33.160156 " fill-opacity="1" fill-rule="nonzero"/></g></svg>