<svg xmlns="http://www.w3.org/2000/svg" xmlns:xlink="http://www.w3.org/1999/xlink" width="500" zoomAndPan="magnify" viewBox="0 0 375 187.499995" height="250" preserveAspectRatio="xMidYMid meet" version="1.0"><defs><g/><clipPath id="f944730eb6"><path d="M 13.8125 53.234375 L 361.414062 53.234375 L 361.414062 133.765625 L 13.8125 133.765625 Z M 13.8125 53.234375 " clip-rule="nonzero"/></clipPath><clipPath id="f9ff7b8964"><path d="M 51.957031 53.234375 L 323.042969 53.234375 C 333.160156 53.234375 342.863281 57.253906 350.015625 64.410156 C 357.171875 71.5625 361.1875 81.265625 361.1875 91.382812 L 361.1875 95.617188 C 361.1875 105.734375 357.171875 115.4375 350.015625 122.59375 C 342.863281 129.746094 333.160156 133.765625 323.042969 133.765625 L 51.957031 133.765625 C 41.839844 133.765625 32.136719 129.746094 24.984375 122.59375 C 17.828125 115.4375 13.8125 105.734375 13.8125 95.617188 L 13.8125 91.382812 C 13.8125 81.265625 17.828125 71.5625 24.984375 64.410156 C 32.136719 57.253906 41.839844 53.234375 51.957031 53.234375 Z M 51.957031 53.234375 " clip-rule="nonzero"/></clipPath><clipPath id="fde0958d4c"><path d="M 13.816406 53.234375 L 360.886719 53.234375 L 360.886719 134 L 13.816406 134 Z M 13.816406 53.234375 " clip-rule="nonzero"/></clipPath><clipPath id="31caea2dce"><path d="M 51.964844 53.234375 L 323.035156 53.234375 C 333.152344 53.234375 342.855469 57.253906 350.007812 64.410156 C 357.164062 71.5625 361.183594 81.265625 361.183594 91.382812 L 361.183594 95.617188 C 361.183594 105.734375 357.164062 115.4375 350.007812 122.589844 C 342.855469 129.742188 333.152344 133.761719 323.035156 133.761719 L 51.964844 133.761719 C 41.847656 133.761719 32.144531 129.742188 24.988281 122.589844 C 17.835938 115.4375 13.816406 105.734375 13.816406 95.617188 L 13.816406 91.382812 C 13.816406 81.265625 17.835938 71.5625 24.988281 64.410156 C 32.144531 57.253906 41.847656 53.234375 51.964844 53.234375 Z M 51.964844 53.234375 " clip-rule="nonzero"/></clipPath></defs><g clip-path="url(#f944730eb6)"><g clip-path="url(#f9ff7b8964)"><path fill="#eedcfe" d="M 13.8125 53.234375 L 361.097656 53.234375 L 361.097656 133.765625 L 13.8125 133.765625 Z M 13.8125 53.234375 " fill-opacity="1" fill-rule="nonzero"/></g></g><g clip-path="url(#fde0958d4c)"><g clip-path="url(#31caea2dce)"><path fill="#7648a1" d="M 63.933594 50.242188 L 72.90625 50.242188 L 72.90625 56.226562 L 63.933594 56.226562 Z M 75.898438 50.242188 L 84.875 50.242188 L 84.875 56.226562 L 75.898438 56.226562 Z M 87.867188 50.242188 L 96.84375 50.242188 L 96.84375 56.226562 L 87.867188 56.226562 Z M 99.835938 50.242188 L 108.8125 50.242188 L 108.8125 56.226562 L 99.835938 56.226562 Z M 111.804688 50.242188 L 120.78125 50.242188 L 120.78125 56.226562 L 111.804688 56.226562 Z M 123.773438 50.242188 L 132.75 50.242188 L 132.75 56.226562 L 123.773438 56.226562 Z M 135.742188 50.242188 L 144.714844 50.242188 L 144.714844 56.226562 L 135.742188 56.226562 Z M 147.707031 50.242188 L 156.683594 50.242188 L 156.683594 56.226562 L 147.707031 56.226562 Z M 159.675781 50.242188 L 168.652344 50.242188 L 168.652344 56.226562 L 159.675781 56.226562 Z M 171.644531 50.242188 L 180.621094 50.242188 L 180.621094 56.226562 L 171.644531 56.226562 Z M 183.613281 50.242188 L 192.589844 50.242188 L 192.589844 56.226562 L 183.613281 56.226562 Z M 195.582031 50.242188 L 204.558594 50.242188 L 204.558594 56.226562 L 195.582031 56.226562 Z M 207.550781 50.242188 L 216.523438 50.242188 L 216.523438 56.226562 L 207.550781 56.226562 Z M 219.515625 50.242188 L 228.492188 50.242188 L 228.492188 56.226562 L 219.515625 56.226562 Z M 231.484375 50.242188 L 240.460938 50.242188 L 240.460938 56.226562 L 231.484375 56.226562 Z M 243.453125 50.242188 L 252.429688 50.242188 L 252.429688 56.226562 L 243.453125 56.226562 Z M 255.421875 50.242188 L 264.398438 50.242188 L 264.398438 56.226562 L 255.421875 56.226562 Z M 267.390625 50.242188 L 276.367188 50.242188 L 276.367188 56.226562 L 267.390625 56.226562 Z M 279.355469 50.242188 L 288.332031 50.242188 L 288.332031 56.226562 L 279.355469 56.226562 Z M 291.324219 50.242188 L 300.300781 50.242188 L 300.300781 56.226562 L 291.324219 56.226562 Z M 303.292969 50.242188 L 312.269531 50.242188 L 312.269531 56.226562 L 303.292969 56.226562 Z M 315.261719 50.242188 L 323.035156 50.242188 C 323.472656 50.242188 323.90625 50.25 324.34375 50.265625 L 324.152344 56.246094 C 323.78125 56.234375 323.410156 56.226562 323.035156 56.226562 L 315.261719 56.226562 Z M 327.570312 50.492188 C 330.792969 50.851562 333.929688 51.578125 336.980469 52.679688 L 334.953125 58.308594 C 332.347656 57.371094 329.664062 56.746094 326.910156 56.441406 Z M 339.972656 53.890625 C 342.929688 55.226562 345.6875 56.886719 348.25 58.875 L 344.582031 63.605469 C 342.394531 61.90625 340.035156 60.484375 337.507812 59.34375 Z M 350.722656 60.957031 C 351.203125 61.390625 351.667969 61.835938 352.125 62.292969 C 353.964844 64.128906 355.613281 66.125 357.070312 68.273438 L 352.121094 71.636719 C 350.875 69.796875 349.464844 68.09375 347.894531 66.523438 C 347.503906 66.132812 347.105469 65.753906 346.695312 65.382812 Z M 358.78125 71.019531 C 360.386719 73.835938 361.640625 76.804688 362.546875 79.917969 L 356.796875 81.585938 C 356.027344 78.925781 354.953125 76.390625 353.582031 73.980469 Z M 363.324219 83.058594 C 363.890625 85.804688 364.175781 88.578125 364.175781 91.382812 L 364.175781 92.601562 L 358.191406 92.601562 L 358.191406 91.382812 C 358.191406 88.984375 357.949219 86.613281 357.464844 84.269531 Z M 364.175781 95.589844 L 364.175781 95.617188 C 364.175781 98.855469 363.796875 102.050781 363.042969 105.199219 L 357.222656 103.804688 C 357.867188 101.113281 358.191406 98.386719 358.191406 95.617188 L 358.191406 95.589844 Z M 362.167969 108.3125 C 361.164062 111.398438 359.820312 114.324219 358.125 117.089844 L 353.019531 113.96875 C 354.46875 111.601562 355.621094 109.101562 356.476562 106.464844 Z M 356.335938 119.773438 C 355.0625 121.527344 353.660156 123.171875 352.125 124.707031 C 351.363281 125.46875 350.574219 126.199219 349.753906 126.898438 L 345.867188 122.347656 C 346.566406 121.75 347.242188 121.125 347.894531 120.472656 C 349.203125 119.164062 350.402344 117.757812 351.492188 116.261719 Z M 347.222656 128.894531 C 344.597656 130.800781 341.789062 132.375 338.792969 133.617188 L 336.5 128.089844 C 339.0625 127.027344 341.460938 125.683594 343.703125 124.054688 Z M 335.765625 134.734375 C 332.679688 135.738281 329.519531 136.371094 326.289062 136.625 L 325.816406 130.660156 C 328.578125 130.441406 331.277344 129.902344 333.914062 129.046875 Z M 323.042969 136.753906 L 314.070312 136.753906 L 314.070312 130.769531 L 323.042969 130.769531 Z M 311.078125 136.753906 L 302.101562 136.753906 L 302.101562 130.769531 L 311.078125 130.769531 Z M 299.109375 136.753906 L 290.132812 136.753906 L 290.132812 130.769531 L 299.109375 130.769531 Z M 287.140625 136.753906 L 278.164062 136.753906 L 278.164062 130.769531 L 287.140625 130.769531 Z M 275.171875 136.753906 L 266.195312 136.753906 L 266.195312 130.769531 L 275.171875 130.769531 Z M 263.203125 136.753906 L 254.226562 136.753906 L 254.226562 130.769531 L 263.203125 130.769531 Z M 251.234375 136.753906 L 242.261719 136.753906 L 242.261719 130.769531 L 251.234375 130.769531 Z M 239.269531 136.753906 L 230.292969 136.753906 L 230.292969 130.769531 L 239.269531 130.769531 Z M 227.300781 136.753906 L 218.324219 136.753906 L 218.324219 130.769531 L 227.300781 130.769531 Z M 215.332031 136.753906 L 206.355469 136.753906 L 206.355469 130.769531 L 215.332031 130.769531 Z M 203.363281 136.753906 L 194.386719 136.753906 L 194.386719 130.769531 L 203.363281 130.769531 Z M 191.394531 136.753906 L 182.417969 136.753906 L 182.417969 130.769531 L 191.394531 130.769531 Z M 179.425781 136.753906 L 170.453125 136.753906 L 170.453125 130.769531 L 179.425781 130.769531 Z M 167.460938 136.753906 L 158.484375 136.753906 L 158.484375 130.769531 L 167.460938 130.769531 Z M 155.492188 136.753906 L 146.515625 136.753906 L 146.515625 130.769531 L 155.492188 130.769531 Z M 143.523438 136.753906 L 134.546875 136.753906 L 134.546875 130.769531 L 143.523438 130.769531 Z M 131.554688 136.753906 L 122.578125 136.753906 L 122.578125 130.769531 L 131.554688 130.769531 Z M 119.585938 136.753906 L 110.609375 136.753906 L 110.609375 130.769531 L 119.585938 130.769531 Z M 107.617188 136.753906 L 98.644531 136.753906 L 98.644531 130.769531 L 107.617188 130.769531 Z M 95.652344 136.753906 L 86.675781 136.753906 L 86.675781 130.769531 L 95.652344 130.769531 Z M 83.683594 136.753906 L 74.707031 136.753906 L 74.707031 130.769531 L 83.683594 130.769531 Z M 71.714844 136.753906 L 62.738281 136.753906 L 62.738281 130.769531 L 71.714844 130.769531 Z M 59.746094 136.753906 L 51.964844 136.753906 C 51.53125 136.753906 51.097656 136.75 50.667969 136.734375 L 50.855469 130.753906 C 51.222656 130.765625 51.59375 130.769531 51.964844 130.769531 L 59.746094 130.769531 Z M 47.4375 136.503906 C 44.214844 136.148438 41.078125 135.421875 38.027344 134.320312 L 40.054688 128.691406 C 42.660156 129.632812 45.34375 130.253906 48.097656 130.558594 Z M 35.035156 133.109375 C 32.078125 131.777344 29.320312 130.117188 26.757812 128.128906 L 30.425781 123.398438 C 32.613281 125.097656 34.972656 126.515625 37.496094 127.65625 Z M 24.28125 126.046875 C 23.800781 125.613281 23.332031 125.164062 22.875 124.707031 C 21.039062 122.871094 19.390625 120.878906 17.933594 118.730469 L 22.882812 115.371094 C 24.128906 117.203125 25.535156 118.90625 27.105469 120.472656 C 27.496094 120.867188 27.898438 121.25 28.308594 121.621094 Z M 16.222656 115.988281 C 14.617188 113.171875 13.363281 110.203125 12.457031 107.089844 L 18.203125 105.417969 C 18.976562 108.082031 20.050781 110.617188 21.421875 113.023438 Z M 11.675781 103.949219 C 11.109375 101.199219 10.824219 98.421875 10.824219 95.617188 L 10.824219 94.40625 L 16.808594 94.40625 L 16.808594 95.617188 C 16.808594 98.015625 17.050781 100.390625 17.539062 102.738281 Z M 10.824219 91.414062 L 10.824219 91.382812 C 10.824219 88.144531 11.203125 84.953125 11.953125 81.808594 L 17.773438 83.199219 C 17.128906 85.890625 16.808594 88.617188 16.808594 91.382812 L 16.808594 91.414062 Z M 12.828125 78.695312 C 13.832031 75.609375 15.175781 72.683594 16.871094 69.914062 L 21.972656 73.039062 C 20.527344 75.402344 19.378906 77.902344 18.523438 80.542969 Z M 18.660156 67.230469 C 19.933594 65.476562 21.339844 63.828125 22.875 62.292969 C 23.632812 61.535156 24.421875 60.804688 25.238281 60.109375 L 29.125 64.65625 C 28.425781 65.253906 27.753906 65.875 27.105469 66.523438 C 25.792969 67.835938 24.59375 69.242188 23.503906 70.746094 Z M 27.769531 58.109375 C 30.394531 56.203125 33.203125 54.628906 36.199219 53.382812 L 38.492188 58.910156 C 35.929688 59.972656 33.53125 61.320312 31.289062 62.949219 Z M 39.226562 52.265625 C 42.308594 51.261719 45.46875 50.628906 48.703125 50.371094 L 49.175781 56.339844 C 46.414062 56.558594 43.714844 57.097656 41.078125 57.953125 Z M 51.945312 50.242188 L 60.941406 50.242188 L 60.941406 56.226562 L 51.945312 56.226562 Z M 51.945312 50.242188 " fill-opacity="1" fill-rule="nonzero"/></g></g><g fill="#7648a1" fill-opacity="1"><g transform="translate(121.12194, 110.370274)"><g><path d="M 4.5 -2.140625 C 4.144531 -2.335938 3.96875 -2.613281 3.96875 -2.96875 C 3.96875 -3.164062 4.03125 -3.398438 4.15625 -3.671875 L 5.453125 -6.640625 C 5.535156 -6.796875 5.632812 -6.921875 5.75 -7.015625 C 5.875 -7.117188 6.035156 -7.171875 6.234375 -7.171875 C 6.390625 -7.171875 6.585938 -7.113281 6.828125 -7 C 8.441406 -6.25 10.078125 -5.753906 11.734375 -5.515625 C 13.398438 -5.273438 14.90625 -5.15625 16.25 -5.15625 C 18.664062 -5.15625 20.425781 -5.375 21.53125 -5.8125 C 22.632812 -6.25 23.332031 -6.832031 23.625 -7.5625 C 23.925781 -8.289062 24.078125 -9.050781 24.078125 -9.84375 C 24.078125 -11.226562 23.570312 -12.34375 22.5625 -13.1875 C 21.5625 -14.039062 20.269531 -14.753906 18.6875 -15.328125 C 17.101562 -15.898438 15.429688 -16.472656 13.671875 -17.046875 C 11.910156 -17.617188 10.238281 -18.3125 8.65625 -19.125 C 7.070312 -19.9375 5.773438 -21.003906 4.765625 -22.328125 C 3.765625 -23.648438 3.265625 -25.363281 3.265625 -27.46875 C 3.265625 -29.914062 3.835938 -31.890625 4.984375 -33.390625 C 6.128906 -34.890625 7.660156 -35.984375 9.578125 -36.671875 C 11.492188 -37.367188 13.597656 -37.71875 15.890625 -37.71875 C 17.992188 -37.71875 19.71875 -37.609375 21.0625 -37.390625 C 22.40625 -37.179688 23.804688 -36.757812 25.265625 -36.125 C 25.460938 -36.039062 25.585938 -35.929688 25.640625 -35.796875 C 25.703125 -35.660156 25.734375 -35.507812 25.734375 -35.34375 C 25.734375 -35.226562 25.710938 -35.097656 25.671875 -34.953125 C 25.640625 -34.816406 25.601562 -34.710938 25.5625 -34.640625 L 24.4375 -31.90625 C 24.238281 -31.59375 23.984375 -31.4375 23.671875 -31.4375 C 23.585938 -31.4375 23.414062 -31.453125 23.15625 -31.484375 C 22.90625 -31.523438 22.71875 -31.566406 22.59375 -31.609375 C 21.726562 -31.804688 20.820312 -31.953125 19.875 -32.046875 C 18.925781 -32.148438 17.875 -32.203125 16.71875 -32.203125 C 14.3125 -32.203125 12.425781 -31.90625 11.0625 -31.3125 C 9.695312 -30.71875 9.015625 -29.492188 9.015625 -27.640625 C 9.015625 -26.535156 9.390625 -25.613281 10.140625 -24.875 C 10.890625 -24.144531 11.878906 -23.523438 13.109375 -23.015625 C 14.335938 -22.503906 15.691406 -22.019531 17.171875 -21.5625 C 18.648438 -21.101562 20.128906 -20.585938 21.609375 -20.015625 C 23.097656 -19.441406 24.453125 -18.738281 25.671875 -17.90625 C 26.898438 -17.082031 27.890625 -16.015625 28.640625 -14.703125 C 29.398438 -13.398438 29.78125 -11.800781 29.78125 -9.90625 C 29.78125 -9.113281 29.648438 -8.144531 29.390625 -7 C 29.128906 -5.851562 28.550781 -4.710938 27.65625 -3.578125 C 26.769531 -2.453125 25.398438 -1.515625 23.546875 -0.765625 C 21.691406 -0.015625 19.160156 0.359375 15.953125 0.359375 C 15.953125 0.359375 15.585938 0.335938 14.859375 0.296875 C 14.128906 0.253906 13.191406 0.15625 12.046875 0 C 10.898438 -0.15625 9.648438 -0.398438 8.296875 -0.734375 C 6.953125 -1.078125 5.6875 -1.546875 4.5 -2.140625 Z M 4.5 -2.140625 "/></g></g></g><g fill="#7648a1" fill-opacity="1"><g transform="translate(153.863515, 110.370274)"><g><path d="M 21.765625 -36.53125 L 32.6875 -1.0625 C 32.6875 -0.707031 32.566406 -0.441406 32.328125 -0.265625 C 32.085938 -0.0859375 31.847656 0 31.609375 0 L 27.875 0 C 27.363281 0 26.96875 -0.351562 26.6875 -1.0625 L 24.90625 -6.9375 L 9.90625 -6.9375 L 8.0625 -1.0625 C 7.789062 -0.351562 7.394531 0 6.875 0 L 3.140625 0 C 2.898438 0 2.660156 -0.0859375 2.421875 -0.265625 C 2.191406 -0.441406 2.078125 -0.707031 2.078125 -1.0625 L 12.984375 -36.53125 C 13.179688 -37.082031 13.539062 -37.359375 14.0625 -37.359375 L 20.703125 -37.359375 C 21.210938 -37.359375 21.566406 -37.082031 21.765625 -36.53125 Z M 11.625 -12.453125 L 23.1875 -12.453125 L 17.375 -31.140625 Z M 11.625 -12.453125 "/></g></g></g><g fill="#7648a1" fill-opacity="1"><g transform="translate(188.62178, 110.370274)"><g><path d="M 20.703125 0 L 14.0625 0 C 13.539062 0 13.179688 -0.273438 12.984375 -0.828125 L 2.078125 -36.296875 C 2.078125 -36.648438 2.191406 -36.914062 2.421875 -37.09375 C 2.660156 -37.269531 2.898438 -37.359375 3.140625 -37.359375 L 6.875 -37.359375 C 7.394531 -37.359375 7.789062 -37.003906 8.0625 -36.296875 L 17.375 -6.234375 L 26.6875 -36.296875 C 26.96875 -37.003906 27.363281 -37.359375 27.875 -37.359375 L 31.609375 -37.359375 C 31.847656 -37.359375 32.085938 -37.269531 32.328125 -37.09375 C 32.566406 -36.914062 32.6875 -36.648438 32.6875 -36.296875 L 21.765625 -0.828125 C 21.566406 -0.273438 21.210938 0 20.703125 0 Z M 20.703125 0 "/></g></g></g><g fill="#7648a1" fill-opacity="1"><g transform="translate(223.380044, 110.370274)"><g><path d="M 9.90625 -5.75 L 25.265625 -5.75 C 25.617188 -5.75 25.882812 -5.628906 26.0625 -5.390625 C 26.238281 -5.160156 26.328125 -4.925781 26.328125 -4.6875 L 26.328125 -1.0625 C 26.328125 -0.832031 26.238281 -0.597656 26.0625 -0.359375 C 25.882812 -0.117188 25.617188 0 25.265625 0 L 5.21875 0 C 4.863281 0 4.597656 -0.117188 4.421875 -0.359375 C 4.242188 -0.597656 4.15625 -0.832031 4.15625 -1.0625 L 4.15625 -36.296875 C 4.15625 -36.535156 4.242188 -36.769531 4.421875 -37 C 4.597656 -37.238281 4.863281 -37.359375 5.21875 -37.359375 L 25.265625 -37.359375 C 25.617188 -37.359375 25.882812 -37.238281 26.0625 -37 C 26.238281 -36.769531 26.328125 -36.535156 26.328125 -36.296875 L 26.328125 -32.6875 C 26.328125 -32.445312 26.238281 -32.207031 26.0625 -31.96875 C 25.882812 -31.726562 25.617188 -31.609375 25.265625 -31.609375 L 9.90625 -31.609375 L 9.90625 -21.234375 L 22.484375 -21.234375 C 22.835938 -21.234375 23.101562 -21.113281 23.28125 -20.875 C 23.457031 -20.632812 23.546875 -20.398438 23.546875 -20.171875 L 23.546875 -16.546875 C 23.546875 -16.304688 23.457031 -16.066406 23.28125 -15.828125 C 23.101562 -15.597656 22.835938 -15.484375 22.484375 -15.484375 L 9.90625 -15.484375 Z M 9.90625 -5.75 "/></g></g></g></svg>