<svg xmlns="http://www.w3.org/2000/svg" xmlns:xlink="http://www.w3.org/1999/xlink" width="500" zoomAndPan="magnify" viewBox="0 0 375 187.499995" height="250" preserveAspectRatio="xMidYMid meet" version="1.0"><defs><g/><clipPath id="58a58fa71d"><path d="M 13.8125 53.234375 L 361.414062 53.234375 L 361.414062 133.765625 L 13.8125 133.765625 Z M 13.8125 53.234375 " clip-rule="nonzero"/></clipPath><clipPath id="926cee597c"><path d="M 51.957031 53.234375 L 323.042969 53.234375 C 333.160156 53.234375 342.863281 57.253906 350.015625 64.410156 C 357.171875 71.5625 361.1875 81.265625 361.1875 91.382812 L 361.1875 95.617188 C 361.1875 105.734375 357.171875 115.4375 350.015625 122.59375 C 342.863281 129.746094 333.160156 133.765625 323.042969 133.765625 L 51.957031 133.765625 C 41.839844 133.765625 32.136719 129.746094 24.984375 122.59375 C 17.828125 115.4375 13.8125 105.734375 13.8125 95.617188 L 13.8125 91.382812 C 13.8125 81.265625 17.828125 71.5625 24.984375 64.410156 C 32.136719 57.253906 41.839844 53.234375 51.957031 53.234375 Z M 51.957031 53.234375 " clip-rule="nonzero"/></clipPath><clipPath id="0ab43af60c"><path d="M 13.816406 53.234375 L 360.886719 53.234375 L 360.886719 134 L 13.816406 134 Z M 13.816406 53.234375 " clip-rule="nonzero"/></clipPath><clipPath id="1fb69c9bb9"><path d="M 51.964844 53.234375 L 323.035156 53.234375 C 333.152344 53.234375 342.855469 57.253906 350.007812 64.410156 C 357.164062 71.5625 361.183594 81.265625 361.183594 91.382812 L 361.183594 95.617188 C 361.183594 105.734375 357.164062 115.4375 350.007812 122.589844 C 342.855469 129.742188 333.152344 133.761719 323.035156 133.761719 L 51.964844 133.761719 C 41.847656 133.761719 32.144531 129.742188 24.988281 122.589844 C 17.835938 115.4375 13.816406 105.734375 13.816406 95.617188 L 13.816406 91.382812 C 13.816406 81.265625 17.835938 71.5625 24.988281 64.410156 C 32.144531 57.253906 41.847656 53.234375 51.964844 53.234375 Z M 51.964844 53.234375 " clip-rule="nonzero"/></clipPath></defs><g clip-path="url(#58a58fa71d)"><g clip-path="url(#926cee597c)"><path fill="#eedcfe" d="M 13.8125 53.234375 L 361.097656 53.234375 L 361.097656 133.765625 L 13.8125 133.765625 Z M 13.8125 53.234375 " fill-opacity="1" fill-rule="nonzero"/></g></g><g clip-path="url(#0ab43af60c)"><g clip-path="url(#1fb69c9bb9)"><path fill="#7648a1" d="M 63.933594 50.242188 L 72.90625 50.242188 L 72.90625 56.226562 L 63.933594 56.226562 Z M 75.898438 50.242188 L 84.875 50.242188 L 84.875 56.226562 L 75.898438 56.226562 Z M 87.867188 50.242188 L 96.84375 50.242188 L 96.84375 56.226562 L 87.867188 56.226562 Z M 99.835938 50.242188 L 108.8125 50.242188 L 108.8125 56.226562 L 99.835938 56.226562 Z M 111.804688 50.242188 L 120.78125 50.242188 L 120.78125 56.226562 L 111.804688 56.226562 Z M 123.773438 50.242188 L 132.75 50.242188 L 132.75 56.226562 L 123.773438 56.226562 Z M 135.742188 50.242188 L 144.714844 50.242188 L 144.714844 56.226562 L 135.742188 56.226562 Z M 147.707031 50.242188 L 156.683594 50.242188 L 156.683594 56.226562 L 147.707031 56.226562 Z M 159.675781 50.242188 L 168.652344 50.242188 L 168.652344 56.226562 L 159.675781 56.226562 Z M 171.644531 50.242188 L 180.621094 50.242188 L 180.621094 56.226562 L 171.644531 56.226562 Z M 183.613281 50.242188 L 192.589844 50.242188 L 192.589844 56.226562 L 183.613281 56.226562 Z M 195.582031 50.242188 L 204.558594 50.242188 L 204.558594 56.226562 L 195.582031 56.226562 Z M 207.550781 50.242188 L 216.523438 50.242188 L 216.523438 56.226562 L 207.550781 56.226562 Z M 219.515625 50.242188 L 228.492188 50.242188 L 228.492188 56.226562 L 219.515625 56.226562 Z M 231.484375 50.242188 L 240.460938 50.242188 L 240.460938 56.226562 L 231.484375 56.226562 Z M 243.453125 50.242188 L 252.429688 50.242188 L 252.429688 56.226562 L 243.453125 56.226562 Z M 255.421875 50.242188 L 264.398438 50.242188 L 264.398438 56.226562 L 255.421875 56.226562 Z M 267.390625 50.242188 L 276.367188 50.242188 L 276.367188 56.226562 L 267.390625 56.226562 Z M 279.355469 50.242188 L 288.332031 50.242188 L 288.332031 56.226562 L 279.355469 56.226562 Z M 291.324219 50.242188 L 300.300781 50.242188 L 300.300781 56.226562 L 291.324219 56.226562 Z M 303.292969 50.242188 L 312.269531 50.242188 L 312.269531 56.226562 L 303.292969 56.226562 Z M 315.261719 50.242188 L 323.035156 50.242188 C 323.472656 50.242188 323.90625 50.25 324.34375 50.265625 L 324.152344 56.246094 C 323.78125 56.234375 323.410156 56.226562 323.035156 56.226562 L 315.261719 56.226562 Z M 327.570312 50.492188 C 330.792969 50.851562 333.929688 51.578125 336.980469 52.679688 L 334.953125 58.308594 C 332.347656 57.371094 329.664062 56.746094 326.910156 56.441406 Z M 339.972656 53.890625 C 342.929688 55.226562 345.6875 56.886719 348.25 58.875 L 344.582031 63.605469 C 342.394531 61.90625 340.035156 60.484375 337.507812 59.34375 Z M 350.722656 60.957031 C 351.203125 61.390625 351.667969 61.835938 352.125 62.292969 C 353.964844 64.128906 355.613281 66.125 357.070312 68.273438 L 352.121094 71.636719 C 350.875 69.796875 349.464844 68.09375 347.894531 66.523438 C 347.503906 66.132812 347.105469 65.753906 346.695312 65.382812 Z M 358.78125 71.019531 C 360.386719 73.835938 361.640625 76.804688 362.546875 79.917969 L 356.796875 81.585938 C 356.027344 78.925781 354.953125 76.390625 353.582031 73.980469 Z M 363.324219 83.058594 C 363.890625 85.804688 364.175781 88.578125 364.175781 91.382812 L 364.175781 92.601562 L 358.191406 92.601562 L 358.191406 91.382812 C 358.191406 88.984375 357.949219 86.613281 357.464844 84.269531 Z M 364.175781 95.589844 L 364.175781 95.617188 C 364.175781 98.855469 363.796875 102.050781 363.042969 105.199219 L 357.222656 103.804688 C 357.867188 101.113281 358.191406 98.386719 358.191406 95.617188 L 358.191406 95.589844 Z M 362.167969 108.3125 C 361.164062 111.398438 359.820312 114.324219 358.125 117.089844 L 353.019531 113.96875 C 354.46875 111.601562 355.621094 109.101562 356.476562 106.464844 Z M 356.335938 119.773438 C 355.0625 121.527344 353.660156 123.171875 352.125 124.707031 C 351.363281 125.46875 350.574219 126.199219 349.753906 126.898438 L 345.867188 122.347656 C 346.566406 121.75 347.242188 121.125 347.894531 120.472656 C 349.203125 119.164062 350.402344 117.757812 351.492188 116.261719 Z M 347.222656 128.894531 C 344.597656 130.800781 341.789062 132.375 338.792969 133.617188 L 336.5 128.089844 C 339.0625 127.027344 341.460938 125.683594 343.703125 124.054688 Z M 335.765625 134.734375 C 332.679688 135.738281 329.519531 136.371094 326.289062 136.625 L 325.816406 130.660156 C 328.578125 130.441406 331.277344 129.902344 333.914062 129.046875 Z M 323.042969 136.753906 L 314.070312 136.753906 L 314.070312 130.769531 L 323.042969 130.769531 Z M 311.078125 136.753906 L 302.101562 136.753906 L 302.101562 130.769531 L 311.078125 130.769531 Z M 299.109375 136.753906 L 290.132812 136.753906 L 290.132812 130.769531 L 299.109375 130.769531 Z M 287.140625 136.753906 L 278.164062 136.753906 L 278.164062 130.769531 L 287.140625 130.769531 Z M 275.171875 136.753906 L 266.195312 136.753906 L 266.195312 130.769531 L 275.171875 130.769531 Z M 263.203125 136.753906 L 254.226562 136.753906 L 254.226562 130.769531 L 263.203125 130.769531 Z M 251.234375 136.753906 L 242.261719 136.753906 L 242.261719 130.769531 L 251.234375 130.769531 Z M 239.269531 136.753906 L 230.292969 136.753906 L 230.292969 130.769531 L 239.269531 130.769531 Z M 227.300781 136.753906 L 218.324219 136.753906 L 218.324219 130.769531 L 227.300781 130.769531 Z M 215.332031 136.753906 L 206.355469 136.753906 L 206.355469 130.769531 L 215.332031 130.769531 Z M 203.363281 136.753906 L 194.386719 136.753906 L 194.386719 130.769531 L 203.363281 130.769531 Z M 191.394531 136.753906 L 182.417969 136.753906 L 182.417969 130.769531 L 191.394531 130.769531 Z M 179.425781 136.753906 L 170.453125 136.753906 L 170.453125 130.769531 L 179.425781 130.769531 Z M 167.460938 136.753906 L 158.484375 136.753906 L 158.484375 130.769531 L 167.460938 130.769531 Z M 155.492188 136.753906 L 146.515625 136.753906 L 146.515625 130.769531 L 155.492188 130.769531 Z M 143.523438 136.753906 L 134.546875 136.753906 L 134.546875 130.769531 L 143.523438 130.769531 Z M 131.554688 136.753906 L 122.578125 136.753906 L 122.578125 130.769531 L 131.554688 130.769531 Z M 119.585938 136.753906 L 110.609375 136.753906 L 110.609375 130.769531 L 119.585938 130.769531 Z M 107.617188 136.753906 L 98.644531 136.753906 L 98.644531 130.769531 L 107.617188 130.769531 Z M 95.652344 136.753906 L 86.675781 136.753906 L 86.675781 130.769531 L 95.652344 130.769531 Z M 83.683594 136.753906 L 74.707031 136.753906 L 74.707031 130.769531 L 83.683594 130.769531 Z M 71.714844 136.753906 L 62.738281 136.753906 L 62.738281 130.769531 L 71.714844 130.769531 Z M 59.746094 136.753906 L 51.964844 136.753906 C 51.53125 136.753906 51.097656 136.75 50.667969 136.734375 L 50.855469 130.753906 C 51.222656 130.765625 51.59375 130.769531 51.964844 130.769531 L 59.746094 130.769531 Z M 47.4375 136.503906 C 44.214844 136.148438 41.078125 135.421875 38.027344 134.320312 L 40.054688 128.691406 C 42.660156 129.632812 45.34375 130.253906 48.097656 130.558594 Z M 35.035156 133.109375 C 32.078125 131.777344 29.320312 130.117188 26.757812 128.128906 L 30.425781 123.398438 C 32.613281 125.097656 34.972656 126.515625 37.496094 127.65625 Z M 24.28125 126.046875 C 23.800781 125.613281 23.332031 125.164062 22.875 124.707031 C 21.039062 122.871094 19.390625 120.878906 17.933594 118.730469 L 22.882812 115.371094 C 24.128906 117.203125 25.535156 118.90625 27.105469 120.472656 C 27.496094 120.867188 27.898438 121.25 28.308594 121.621094 Z M 16.222656 115.988281 C 14.617188 113.171875 13.363281 110.203125 12.457031 107.089844 L 18.203125 105.417969 C 18.976562 108.082031 20.050781 110.617188 21.421875 113.023438 Z M 11.675781 103.949219 C 11.109375 101.199219 10.824219 98.421875 10.824219 95.617188 L 10.824219 94.40625 L 16.808594 94.40625 L 16.808594 95.617188 C 16.808594 98.015625 17.050781 100.390625 17.539062 102.738281 Z M 10.824219 91.414062 L 10.824219 91.382812 C 10.824219 88.144531 11.203125 84.953125 11.953125 81.808594 L 17.773438 83.199219 C 17.128906 85.890625 16.808594 88.617188 16.808594 91.382812 L 16.808594 91.414062 Z M 12.828125 78.695312 C 13.832031 75.609375 15.175781 72.683594 16.871094 69.914062 L 21.972656 73.039062 C 20.527344 75.402344 19.378906 77.902344 18.523438 80.542969 Z M 18.660156 67.230469 C 19.933594 65.476562 21.339844 63.828125 22.875 62.292969 C 23.632812 61.535156 24.421875 60.804688 25.238281 60.109375 L 29.125 64.65625 C 28.425781 65.253906 27.753906 65.875 27.105469 66.523438 C 25.792969 67.835938 24.59375 69.242188 23.503906 70.746094 Z M 27.769531 58.109375 C 30.394531 56.203125 33.203125 54.628906 36.199219 53.382812 L 38.492188 58.910156 C 35.929688 59.972656 33.53125 61.320312 31.289062 62.949219 Z M 39.226562 52.265625 C 42.308594 51.261719 45.46875 50.628906 48.703125 50.371094 L 49.175781 56.339844 C 46.414062 56.558594 43.714844 57.097656 41.078125 57.953125 Z M 51.945312 50.242188 L 60.941406 50.242188 L 60.941406 56.226562 L 51.945312 56.226562 Z M 51.945312 50.242188 " fill-opacity="1" fill-rule="nonzero"/></g></g><g fill="#7648a1" fill-opacity="1"><g transform="translate(101.276425, 110.370274)"><g><path d="M 4.15625 -1.0625 C 4.15625 -0.59375 4.5 0 5.21875 0 L 25.265625 0 C 25.984375 0 26.328125 -0.59375 26.328125 -1.0625 L 26.328125 -4.6875 C 26.328125 -5.15625 25.984375 -5.75 25.265625 -5.75 L 9.90625 -5.75 L 9.90625 -36.296875 C 9.90625 -37.015625 9.3125 -37.359375 8.84375 -37.359375 L 5.21875 -37.359375 C 4.75 -37.359375 4.15625 -37.015625 4.15625 -36.296875 Z M 4.15625 -1.0625 "/></g></g></g><g fill="#7648a1" fill-opacity="1"><g transform="translate(131.17091, 110.370274)"><g><path d="M 17.375 -37.71875 C 3.625 -37.71875 3.5625 -26.28125 3.5625 -23.78125 L 3.5625 -13.046875 C 3.5625 -10.859375 3.625 0.359375 17.375 0.359375 C 31.140625 0.359375 31.203125 -10.859375 31.203125 -13.046875 L 31.203125 -23.78125 C 31.203125 -26.28125 31.140625 -37.71875 17.375 -37.71875 Z M 17.375 -5.15625 C 14.953125 -5.15625 9.3125 -6.109375 9.3125 -13.515625 L 9.3125 -23.84375 C 9.3125 -31.25 14.953125 -32.203125 17.375 -32.203125 C 19.8125 -32.203125 25.4375 -31.25 25.4375 -23.84375 L 25.4375 -13.515625 C 25.4375 -6.109375 19.8125 -5.15625 17.375 -5.15625 Z M 17.375 -5.15625 "/></g></g></g><g fill="#7648a1" fill-opacity="1"><g transform="translate(165.929174, 110.370274)"><g><path d="M 29.125 -20.40625 C 29.125 -20.875 28.765625 -21.46875 28.0625 -21.46875 L 19.625 -21.46875 C 18.921875 -21.46875 18.5625 -20.875 18.5625 -20.40625 L 18.5625 -16.78125 C 18.5625 -16.3125 18.921875 -15.71875 19.625 -15.71875 L 23.375 -15.71875 L 23.375 -5.8125 C 21.765625 -5.28125 18.859375 -5.15625 17.5625 -5.15625 C 13.234375 -5.15625 9.3125 -7.125 9.3125 -14.0625 L 9.3125 -23.3125 C 9.3125 -30.25 14.703125 -32.203125 19.21875 -32.203125 C 21.296875 -32.203125 23.546875 -32.03125 25.734375 -31.546875 C 26.03125 -31.546875 26.390625 -31.671875 26.578125 -32.140625 L 27.109375 -35.890625 C 27.109375 -36.0625 26.984375 -36.53125 26.515625 -36.71875 C 23.84375 -37.359375 20.34375 -37.71875 17.96875 -37.71875 C 5.515625 -37.71875 3.5625 -28.53125 3.5625 -24.5625 L 3.5625 -12.8125 C 3.5625 -8.84375 4.5625 0.359375 17.015625 0.359375 C 19.6875 0.359375 25.4375 -0.125 28.765625 -1.484375 C 28.890625 -1.546875 29.125 -1.71875 29.125 -2.078125 Z M 29.125 -20.40625 "/></g></g></g><g fill="#7648a1" fill-opacity="1"><g transform="translate(199.204577, 110.370274)"><g><path d="M 5.21875 -16.96875 C 4.5 -16.96875 4.15625 -16.375 4.15625 -15.890625 L 4.15625 -12.9375 C 4.15625 -12.453125 4.5 -11.859375 5.21875 -11.859375 L 18.265625 -11.859375 C 18.984375 -11.859375 19.328125 -12.453125 19.328125 -12.9375 L 19.328125 -15.890625 C 19.328125 -16.375 18.984375 -16.96875 18.265625 -16.96875 Z M 5.21875 -16.96875 "/></g></g></g><g fill="#7648a1" fill-opacity="1"><g transform="translate(222.693102, 110.370274)"><g><path d="M 9.90625 -36.296875 C 9.90625 -36.953125 9.484375 -37.359375 8.84375 -37.359375 L 5.21875 -37.359375 C 4.5625 -37.359375 4.15625 -36.953125 4.15625 -36.296875 L 4.15625 -1.0625 C 4.15625 -0.421875 4.5625 0 5.21875 0 L 8.84375 0 C 9.484375 0 9.90625 -0.421875 9.90625 -1.0625 Z M 9.90625 -36.296875 "/></g></g></g><g fill="#7648a1" fill-opacity="1"><g transform="translate(236.750627, 110.370274)"><g><path d="M 26.578125 -1.0625 C 26.984375 -0.46875 27.640625 0 28.109375 0 L 31.734375 0 C 32.203125 0 32.796875 -0.359375 32.796875 -1.0625 L 32.796875 -36.296875 C 32.796875 -37.015625 32.203125 -37.359375 31.734375 -37.359375 L 28.109375 -37.359375 C 27.640625 -37.359375 27.046875 -37.015625 27.046875 -36.296875 L 27.046875 -10.671875 L 10.265625 -36.296875 C 9.84375 -36.890625 9.25 -37.359375 8.78125 -37.359375 L 5.21875 -37.359375 C 4.75 -37.359375 4.15625 -37.015625 4.15625 -36.296875 L 4.15625 -1.0625 C 4.15625 -0.359375 4.75 0 5.21875 0 L 8.84375 0 C 9.3125 0 9.90625 -0.359375 9.90625 -1.0625 L 9.90625 -26.6875 Z M 26.578125 -1.0625 "/></g></g></g></svg>